<svg width="24" height="24" viewBox="0 0 24 24" fill="none" xmlns="http://www.w3.org/2000/svg">
<path d="M22.9167 8.2451C22.7473 7.83389 22.3447 7.56489 21.9003 7.56489H15.9799L12.9834 1.55977C12.6105 0.813408 11.3884 0.813408 11.0155 1.55977L8.0201 7.56489H2.09975C1.65534 7.56489 1.25273 7.83389 1.08332 8.2451C0.913917 8.65632 1.00742 9.13259 1.32203 9.44679L6.36456 14.5005L4.34271 21.5948C4.2162 22.0391 4.37901 22.5154 4.75082 22.7877C5.12483 23.0611 5.62754 23.071 6.00925 22.8141L12 18.8122L17.9897 22.8141C18.1745 22.9376 18.3868 22.9994 18.6002 22.9994C18.8279 22.9994 19.0556 22.9288 19.2492 22.7877C19.621 22.5154 19.7838 22.0391 19.6573 21.5948L17.6354 14.5005L22.678 9.44679C22.9926 9.13259 23.0861 8.65632 22.9167 8.2451Z" fill="black"/>
</svg>
