<svg width="24" height="24" viewBox="0 0 24 24" fill="none" xmlns="http://www.w3.org/2000/svg">
<path fill-rule="evenodd" clip-rule="evenodd" d="M13.501 3C13.501 3.82843 14.1726 4.5 15.001 4.5H17.3776L12.9384 8.93924C12.3526 9.52502 12.3526 10.4748 12.9384 11.0606C13.5242 11.6463 14.4739 11.6463 15.0597 11.0606L19.5009 6.61935V8.99991C19.5009 9.82834 20.1725 10.4999 21.0009 10.4999C21.8293 10.4999 22.5009 9.82834 22.5009 8.99991V3C22.5009 2.17157 21.8293 1.5 21.0009 1.5H20.999H15.001C14.1726 1.5 13.501 2.17157 13.501 3ZM4.5 14.9998C4.5 14.1714 3.82843 13.4998 3 13.4998C2.17157 13.4998 1.5 14.1714 1.5 14.9998V20.9998C1.5 21.1667 1.52728 21.3273 1.57761 21.4773C1.64898 21.6905 1.76955 21.8909 1.93934 22.0606C2.23906 22.3604 2.63405 22.5067 3.02683 22.4998H8.99991C9.82834 22.4998 10.4999 21.8282 10.4999 20.9998C10.4999 20.1713 9.82834 19.4998 8.99991 19.4998H6.62156L11.0606 15.0608C11.6463 14.475 11.6463 13.5252 11.0606 12.9394C10.4748 12.3536 9.52502 12.3536 8.93924 12.9394L4.5 17.3787V14.9998Z" fill="black"/>
</svg>
