<svg width="24" height="24" viewBox="0 0 24 24" fill="none" xmlns="http://www.w3.org/2000/svg">
<path d="M19.4628 12.2498C19.4002 12.1812 19.3655 12.0917 19.3655 11.9989C19.3655 11.9061 19.4002 11.8166 19.4628 11.748L20.9724 10.1197C21.4176 9.6407 21.6978 9.03185 21.7721 8.38218C21.8463 7.73251 21.7108 7.07612 21.3852 6.50904C21.0596 5.94196 20.5611 5.49396 19.9626 5.23057C19.364 4.96719 18.6969 4.90225 18.0589 5.04525L15.898 5.54257C15.81 5.56242 15.7178 5.54797 15.6401 5.50218C15.5624 5.45638 15.5051 5.38269 15.4799 5.29611L14.8307 3.16601C14.6402 2.53936 14.2533 1.99055 13.7272 1.60054C13.201 1.21054 12.5634 1 11.9084 1C11.2535 1 10.6158 1.21054 10.0897 1.60054C9.56349 1.99055 9.17661 2.53936 8.98613 3.16601L8.33697 5.29831C8.31175 5.38478 8.25435 5.45829 8.17658 5.50373C8.09881 5.54916 8.00658 5.56306 7.91888 5.54257L5.74696 5.04525C5.10823 4.89991 4.43973 4.963 3.83947 5.22528C3.23921 5.48757 2.73876 5.93525 2.41148 6.50269C2.08421 7.07014 1.94732 7.7275 2.02088 8.37842C2.09445 9.02934 2.3746 9.63957 2.82027 10.1197L4.33203 11.748C4.39465 11.8166 4.42938 11.9061 4.42938 11.9989C4.42938 12.0917 4.39465 12.1812 4.33203 12.2498L2.82247 13.8781C2.37552 14.3576 2.09418 14.9679 2.01979 15.6191C1.9454 16.2704 2.0819 16.9283 2.4092 17.4962C2.73651 18.0642 3.23738 18.5121 3.83817 18.7743C4.43897 19.0364 5.10801 19.0989 5.74696 18.9525L7.90787 18.4552C7.9958 18.4359 8.08778 18.4506 8.16534 18.4963C8.24289 18.542 8.30028 18.6154 8.32597 18.7017L8.97512 20.834C9.16561 21.4606 9.55249 22.0095 10.0787 22.3995C10.6048 22.7895 11.2425 23 11.8974 23C12.5524 23 13.19 22.7895 13.7162 22.3995C14.2423 22.0095 14.6292 21.4606 14.8197 20.834L15.4689 18.7017C15.4954 18.6161 15.5531 18.5436 15.6305 18.4984C15.7079 18.4532 15.7994 18.4386 15.887 18.4574L18.0479 18.9547C18.6866 19.1001 19.3551 19.037 19.9554 18.7747C20.5556 18.5124 21.0561 18.0648 21.3834 17.4973C21.7106 16.9299 21.8475 16.2725 21.774 15.6216C21.7004 14.9707 21.4202 14.3604 20.9746 13.8803L19.4628 12.2498ZM11.8974 15.2997C11.2446 15.2997 10.6064 15.1061 10.0636 14.7434C9.52079 14.3807 9.09772 13.8652 8.84789 13.2621C8.59806 12.6589 8.5327 11.9952 8.66006 11.3549C8.78742 10.7147 9.10179 10.1265 9.56341 9.6649C10.025 9.20327 10.6132 8.8889 11.2535 8.76154C11.8938 8.63418 12.5574 8.69955 13.1606 8.94938C13.7637 9.1992 14.2792 9.62227 14.6419 10.1651C15.0046 10.7079 15.1982 11.3461 15.1982 11.9989C15.1982 12.8743 14.8504 13.7139 14.2314 14.3329C13.6124 14.9519 12.7728 15.2997 11.8974 15.2997Z" fill="black"/>
</svg>
