<svg width="24" height="24" viewBox="0 0 24 24" fill="none" xmlns="http://www.w3.org/2000/svg">
<path d="M18.5617 14.1222H17.1033C17.0426 14.1222 16.9843 14.0981 16.9413 14.0551C16.8983 14.0121 16.8742 13.9538 16.8742 13.893V10.1009C16.8742 10.0402 16.8983 9.98188 16.9413 9.93891C16.9843 9.89593 17.0426 9.87179 17.1033 9.87179H18.5617C19.4393 9.87179 20.2972 9.61154 21.027 9.12395C21.7567 8.63637 22.3254 7.94334 22.6613 7.13251C22.9972 6.32168 23.085 5.42947 22.9138 4.5687C22.7426 3.70793 22.32 2.91726 21.6994 2.29668C21.0788 1.6761 20.2881 1.25348 19.4274 1.08226C18.5666 0.911041 17.6744 0.998917 16.8636 1.33477C16.0527 1.67063 15.3597 2.23938 14.8721 2.96911C14.3845 3.69883 14.1243 4.55676 14.1243 5.43439V6.89275C14.1243 6.95353 14.1001 7.01181 14.0572 7.05479C14.0142 7.09776 13.9559 7.12191 13.8951 7.12191H10.104C10.0432 7.12191 9.98489 7.09776 9.94192 7.05479C9.89894 7.01181 9.8748 6.95353 9.8748 6.89275V5.43439C9.8748 4.55676 9.61455 3.69883 9.12696 2.96911C8.63937 2.23938 7.94635 1.67063 7.13552 1.33477C6.32469 0.998917 5.43248 0.911041 4.57171 1.08226C3.71094 1.25348 2.92027 1.6761 2.29969 2.29668C1.6791 2.91726 1.25648 3.70793 1.08527 4.5687C0.914047 5.42947 1.00192 6.32168 1.33778 7.13251C1.67363 7.94334 2.24239 8.63637 2.97211 9.12395C3.70184 9.61154 4.55977 9.87179 5.4374 9.87179H6.89576C6.95653 9.87179 7.01482 9.89593 7.05779 9.93891C7.10077 9.98188 7.12491 10.0402 7.12491 10.1009V13.893C7.12491 13.9538 7.10077 14.0121 7.05779 14.0551C7.01482 14.0981 6.95653 14.1222 6.89576 14.1222H5.4374C4.55977 14.1222 3.70184 14.3824 2.97211 14.87C2.24239 15.3576 1.67363 16.0506 1.33778 16.8615C1.00192 17.6723 0.914047 18.5645 1.08527 19.4253C1.25648 20.2861 1.6791 21.0767 2.29969 21.6973C2.92027 22.3179 3.71094 22.7405 4.57171 22.9117C5.43248 23.0829 6.32469 22.9951 7.13552 22.6592C7.94635 22.3234 8.63937 21.7546 9.12696 21.0249C9.61455 20.2952 9.8748 19.4372 9.8748 18.5596V17.1012C9.8748 17.0405 9.89894 16.9822 9.94192 16.9392C9.98489 16.8962 10.0432 16.8721 10.104 16.8721H13.8951C13.9559 16.8721 14.0142 16.8962 14.0572 16.9392C14.1001 16.9822 14.1243 17.0405 14.1243 17.1012V18.5596C14.1243 19.4372 14.3845 20.2952 14.8721 21.0249C15.3597 21.7546 16.0527 22.3234 16.8636 22.6592C17.6744 22.9951 18.5666 23.0829 19.4274 22.9117C20.2881 22.7405 21.0788 22.3179 21.6994 21.6973C22.32 21.0767 22.7426 20.2861 22.9138 19.4253C23.085 18.5645 22.9972 17.6723 22.6613 16.8615C22.3254 16.0506 21.7567 15.3576 21.027 14.87C20.2972 14.3824 19.4393 14.1222 18.5617 14.1222ZM16.8742 5.43439C16.8742 5.10064 16.9731 4.77437 17.1586 4.49686C17.344 4.21935 17.6075 4.00306 17.9159 3.87534C18.2243 3.74761 18.5636 3.71419 18.8909 3.77931C19.2182 3.84442 19.5189 4.00514 19.7549 4.24114C19.9909 4.47714 20.1517 4.77783 20.2168 5.10518C20.2819 5.43252 20.2485 5.77182 20.1207 6.08018C19.993 6.38853 19.7767 6.65208 19.4992 6.83751C19.2217 7.02294 18.8954 7.12191 18.5617 7.12191H17.1033C17.0426 7.12191 16.9843 7.09776 16.9413 7.05479C16.8983 7.01181 16.8742 6.95353 16.8742 6.89275V5.43439ZM3.74989 5.43439C3.74989 4.98684 3.92768 4.55761 4.24415 4.24114C4.56062 3.92467 4.98984 3.74688 5.4374 3.74688C5.88496 3.74688 6.31418 3.92467 6.63065 4.24114C6.94712 4.55761 7.12491 4.98684 7.12491 5.43439V6.89275C7.12491 6.95353 7.10077 7.01181 7.05779 7.05479C7.01482 7.09776 6.95653 7.12191 6.89576 7.12191H5.4374C4.98999 7.12142 4.56105 6.94347 4.24468 6.62711C3.92832 6.31074 3.75037 5.8818 3.74989 5.43439ZM7.12491 18.5596C7.12491 18.8934 7.02594 19.2196 6.84052 19.4971C6.65509 19.7746 6.39154 19.9909 6.08318 20.1187C5.77483 20.2464 5.43553 20.2798 5.10818 20.2147C4.78084 20.1496 4.48015 19.9888 4.24415 19.7528C4.00815 19.5168 3.84742 19.2162 3.78231 18.8888C3.7172 18.5615 3.75062 18.2222 3.87834 17.9138C4.00606 17.6055 4.22236 17.3419 4.49987 17.1565C4.77738 16.9711 5.10364 16.8721 5.4374 16.8721H6.89576C6.95653 16.8721 7.01482 16.8962 7.05779 16.9392C7.10077 16.9822 7.12491 17.0405 7.12491 17.1012V18.5596ZM9.8748 10.1009C9.8748 10.0402 9.89894 9.98188 9.94192 9.93891C9.98489 9.89593 10.0432 9.87179 10.104 9.87179H13.8951C13.9559 9.87179 14.0142 9.89593 14.0572 9.93891C14.1001 9.98188 14.1243 10.0402 14.1243 10.1009V13.893C14.1243 13.9538 14.1001 14.0121 14.0572 14.0551C14.0142 14.0981 13.9559 14.1222 13.8951 14.1222H10.104C10.0432 14.1222 9.98489 14.0981 9.94192 14.0551C9.89894 14.0121 9.8748 13.9538 9.8748 13.893V10.1009ZM18.5617 20.2489C18.1145 20.2482 17.6858 20.0703 17.3696 19.7542C17.0533 19.4381 16.8751 19.0095 16.8742 18.5623V17.1012C16.8742 17.0405 16.8983 16.9822 16.9413 16.9392C16.9843 16.8962 17.0426 16.8721 17.1033 16.8721H18.5617C18.7865 16.8668 19.0102 16.9066 19.2194 16.989C19.4287 17.0715 19.6194 17.1949 19.7803 17.3521C19.9412 17.5092 20.069 17.697 20.1563 17.9043C20.2436 18.1116 20.2885 18.3342 20.2885 18.5591C20.2885 18.7841 20.2436 19.0067 20.1563 19.214C20.069 19.4213 19.9412 19.609 19.7803 19.7662C19.6194 19.9234 19.4287 20.0468 19.2194 20.1292C19.0102 20.2117 18.7865 20.2514 18.5617 20.2462V20.2489Z" fill="black"/>
</svg>
