<svg width="24" height="24" viewBox="0 0 24 24" fill="none" xmlns="http://www.w3.org/2000/svg">
<path d="M9.11642 5.35614L15.877 12L9.11646 18.6438C8.90058 18.8634 8.59779 19 8.26254 19C7.60688 19 7.07537 18.4777 7.07537 17.8333C7.07537 17.5038 7.21436 17.2062 7.43787 16.9941L11.3325 13.1667L2.18716 13.1667C1.53151 13.1667 1 12.6443 1 12C1 11.3557 1.53151 10.8333 2.18717 10.8333H11.3325L7.43796 7.00599C7.2144 6.79384 7.07537 6.49621 7.07537 6.16667C7.07537 5.52233 7.60688 5 8.26254 5C8.59777 5 8.90055 5.13655 9.11642 5.35614Z" fill="black"/>
<path d="M14.1984 6.16667C14.1984 6.4962 14.3374 6.79382 14.5609 7.00597L19.6427 12L14.5608 16.9941C14.3373 17.2063 14.1984 17.5039 14.1984 17.8333C14.1984 18.4777 14.7299 19 15.3855 19C15.7208 19 16.0236 18.8634 16.2395 18.6438L23 12L16.2394 5.35615C16.0235 5.13655 15.7208 5 15.3855 5C14.7299 5 14.1984 5.52233 14.1984 6.16667Z" fill="black"/>
</svg>
