<svg width="100" height="100" viewBox="0 0 100 100" fill="none" xmlns="http://www.w3.org/2000/svg">
<path d="M82.2917 98.5H17.7083C7.91667 98.5 0 90.5833 0 80.7917V18.7083C0 8.91667 7.91667 1 17.7083 1H82.2917C92.0833 1 100 8.91667 100 18.7083V80.7917C100 90.5833 92.0833 98.5 82.2917 98.5Z" fill="#FF26BE"/>
<path d="M80.7084 94.3333H19.2917C10.9584 94.3333 4.16669 87.5417 4.16669 79.2083V20.2917C4.16669 11.9583 10.9584 5.16667 19.2917 5.16667H80.6667C89.0417 5.16667 95.7917 11.9583 95.7917 20.2917V79.1667C95.8334 87.5417 89.0417 94.3333 80.7084 94.3333Z" fill="#2E001F"/>
<path d="M39.5417 46.625L51.2083 69.0417C51.4167 69.375 51.2917 69.7083 50.9583 69.7083H43.7083C43.25 69.7083 43.0417 69.5833 42.8333 69.1667C40.1667 63.6667 37.4583 58.1667 34.6667 52.25H34.5833C32.0833 57.8333 29.3333 63.7083 26.6667 69.2083C26.4583 69.5417 26.25 69.6667 25.9167 69.6667H19.0417C18.625 69.6667 18.5833 69.3333 18.7917 69.0833L30.2083 47.3333L19.1667 25.3333C18.9167 25 19.1667 24.75 19.4167 24.75H26.5833C27 24.75 27.1667 24.8333 27.3333 25.2083C29.9583 30.7083 32.625 36.375 35.125 41.9167H35.2083C37.625 36.4167 40.2917 30.7083 42.875 25.25C43.0833 24.9167 43.2083 24.7083 43.625 24.7083H50.3333C50.6667 24.7083 50.7917 24.9583 50.5833 25.2917L39.5417 46.625ZM53.25 53.4167C53.25 43.7083 59.7083 36.125 69.9583 36.125C70.8333 36.125 71.2917 36.125 72.125 36.2083V25.1667C72.125 24.9167 72.3333 24.75 72.5417 24.75H79.125C79.4583 24.75 79.5417 24.875 79.5417 25.0833V63.3333C79.5417 64.4583 79.5417 65.875 79.75 67.4167C79.75 67.6667 79.6667 67.75 79.4167 67.875C75.9167 69.5417 72.25 70.2917 68.75 70.2917C59.7083 70.3333 53.25 64.75 53.25 53.4167ZM72.125 42.75C71.5417 42.5 70.7083 42.3333 69.7083 42.3333C64.4583 42.3333 60.7917 46.375 60.7917 53.0833C60.7917 60.75 64.5417 63.8333 69.25 63.8333C70.25 63.8333 71.3333 63.7083 72.125 63.375V42.75Z" fill="#FFD9F2"/>
</svg>
