<svg width="100" height="100" viewBox="0 0 100 100" fill="none" xmlns="http://www.w3.org/2000/svg">
<rect width="100" height="100" fill="#9A1E75"/>
<path d="M69.1979 79.475H29.8021C23.8292 79.475 19 74.6458 19 68.6729V30.8021C19 24.8292 23.8292 20 29.8021 20H69.1979C75.1708 20 80 24.8292 80 30.8021V68.6729C80 74.6458 75.1708 79.475 69.1979 79.475Z" fill="#FF26BE"/>
<path d="M68.2321 76.9333H30.7679C25.6846 76.9333 21.5417 72.7904 21.5417 67.7071V31.7679C21.5417 26.6846 25.6846 22.5417 30.7679 22.5417H68.2067C73.3154 22.5417 77.4329 26.6846 77.4329 31.7679V67.6817C77.4584 72.7904 73.3154 76.9333 68.2321 76.9333Z" fill="#2E001F"/>
<path d="M43.1204 47.8313L50.237 61.5054C50.3641 61.7088 50.2879 61.9121 50.0845 61.9121H45.662C45.3825 61.9121 45.2554 61.8358 45.1283 61.5817C43.5016 58.2267 41.8495 54.8717 40.1466 51.2625H40.0958C38.5708 54.6683 36.8933 58.2521 35.2666 61.6071C35.1395 61.8104 35.0125 61.8867 34.8091 61.8867H30.6154C30.3612 61.8867 30.3358 61.6833 30.4629 61.5308L37.427 48.2633L30.6916 34.8433C30.5391 34.64 30.6916 34.4875 30.8441 34.4875H35.2158C35.47 34.4875 35.5716 34.5383 35.6733 34.7671C37.2745 38.1221 38.9012 41.5788 40.4262 44.9592H40.477C41.9512 41.6042 43.5779 38.1221 45.1537 34.7925C45.2808 34.5892 45.357 34.4621 45.6112 34.4621H49.7033C49.9066 34.4621 49.9829 34.6146 49.8558 34.8179L43.1204 47.8313ZM51.4825 51.9742C51.4825 46.0521 55.422 41.4263 61.6745 41.4263C62.2083 41.4263 62.4879 41.4263 62.9962 41.4771V34.7417C62.9962 34.5892 63.1233 34.4875 63.2504 34.4875H67.2662C67.4695 34.4875 67.5204 34.5638 67.5204 34.6908V58.0233C67.5204 58.7096 67.5204 59.5738 67.6475 60.5142C67.6475 60.6667 67.5966 60.7175 67.4441 60.7938C65.3091 61.8104 63.0725 62.2679 60.9375 62.2679C55.422 62.2933 51.4825 58.8875 51.4825 51.9742ZM62.9962 45.4675C62.6404 45.315 62.132 45.2133 61.522 45.2133C58.3195 45.2133 56.0829 47.6788 56.0829 51.7708C56.0829 56.4475 58.3704 58.3283 61.2425 58.3283C61.8525 58.3283 62.5133 58.2521 62.9962 58.0488V45.4675Z" fill="#FFD9F2"/>
</svg>
