<svg width="100" height="100" viewBox="0 0 100 100" fill="none" xmlns="http://www.w3.org/2000/svg">
<rect width="100" height="100" fill="#2E001F"/>
<path d="M71.3125 82.35H28.6875C22.225 82.35 17 77.125 17 70.6625V29.6875C17 23.225 22.225 18 28.6875 18H71.3125C77.775 18 83 23.225 83 29.6875V70.6625C83 77.125 77.775 82.35 71.3125 82.35Z" fill="#FF26BE"/>
<path d="M70.2676 79.5999H29.7326C24.2326 79.5999 19.7501 75.1174 19.7501 69.6174V30.7324C19.7501 25.2324 24.2326 20.7499 29.7326 20.7499H70.2401C75.7676 20.7499 80.2226 25.2324 80.2226 30.7324V69.5899C80.2501 75.1174 75.7676 79.5999 70.2676 79.5999Z" fill="#2E001F"/>
<path d="M43.0975 48.1125L50.7975 62.9075C50.935 63.1275 50.8525 63.3475 50.6325 63.3475H45.8475C45.545 63.3475 45.4075 63.265 45.27 62.99C43.51 59.36 41.7225 55.73 39.88 51.825H39.825C38.175 55.51 36.36 59.3875 34.6 63.0175C34.4625 63.2375 34.325 63.32 34.105 63.32H29.5675C29.2925 63.32 29.265 63.1 29.4025 62.935L36.9375 48.58L29.65 34.0601C29.485 33.8401 29.65 33.6751 29.815 33.6751H34.545C34.82 33.6751 34.93 33.7301 35.04 33.9776C36.7725 37.6076 38.5325 41.3475 40.1825 45.005H40.2375C41.8325 41.375 43.5925 37.6076 45.2975 34.0051C45.435 33.7851 45.5175 33.6476 45.7925 33.6476H50.22C50.44 33.6476 50.5225 33.8126 50.385 34.0326L43.0975 48.1125ZM52.145 52.595C52.145 46.1876 56.4075 41.1826 63.1725 41.1826C63.75 41.1826 64.0525 41.1826 64.6025 41.2376V33.9501C64.6025 33.7851 64.74 33.6751 64.8775 33.6751H69.2225C69.4425 33.6751 69.4975 33.7576 69.4975 33.8951V59.14C69.4975 59.8825 69.4975 60.8175 69.635 61.835C69.635 62 69.58 62.055 69.415 62.1375C67.105 63.2375 64.685 63.7325 62.375 63.7325C56.4075 63.76 52.145 60.075 52.145 52.595ZM64.6025 45.555C64.2175 45.39 63.6675 45.28 63.0075 45.28C59.5425 45.28 57.1225 47.9475 57.1225 52.375C57.1225 57.435 59.5975 59.47 62.705 59.47C63.365 59.47 64.08 59.3875 64.6025 59.1675V45.555Z" fill="#FFD9F2"/>
</svg>
