<svg width="100" height="100" viewBox="0 0 100 100" fill="none" xmlns="http://www.w3.org/2000/svg">
<path d="M44.7694 10.0347L8.22461 25.1565C6.19235 25.9975 6.2134 28.8841 8.25841 29.6947L44.9561 44.2475C48.1807 45.5262 51.7716 45.5262 54.9956 44.2475L91.6939 29.6947C93.7383 28.8841 93.7599 25.9975 91.7271 25.1565L55.1829 10.0347C51.8486 8.6551 48.1032 8.6551 44.7694 10.0347Z" fill="#FCB400"/>
<path d="M53.2318 52.1944V88.5492C53.2318 90.2784 54.9754 91.4624 56.5827 90.8252L97.4751 74.9527C98.4087 74.5826 99.0209 73.6806 99.0209 72.6766V36.3219C99.0209 34.5927 97.2773 33.4087 95.67 34.0458L54.7776 49.9184C53.8445 50.2885 53.2318 51.1905 53.2318 52.1944Z" fill="#18BFFF"/>
<path d="M43.6832 54.0702L31.5472 59.9299L30.315 60.5255L4.69664 72.8005C3.07271 73.5839 1 72.4005 1 70.5965V36.4746C1 35.8219 1.33465 35.2584 1.78343 34.834C1.9707 34.6462 2.1829 34.4916 2.40342 34.3692C3.01565 34.0018 3.88883 33.9038 4.63127 34.1974L43.4793 49.5896C45.4539 50.373 45.6091 53.1399 43.6832 54.0702Z" fill="#F82B60"/>
<path d="M43.6832 54.0702L31.5472 59.9299L1.78345 34.834C1.97072 34.6462 2.18292 34.4916 2.40343 34.3692C3.01566 34.0018 3.88885 33.9038 4.63128 34.1974L43.4793 49.5896C45.4539 50.373 45.6091 53.1399 43.6832 54.0702Z" fill="black" fill-opacity="0.25"/>
</svg>
