<svg width="100" height="100" viewBox="0 0 100 100" fill="none" xmlns="http://www.w3.org/2000/svg">
<path d="M18.0905 19.7874C18.0905 19.7874 18.0905 19.7874 18.0966 19.7874H27.1826C27.7033 19.7874 28.122 19.3626 28.123 18.8449C28.123 18.8416 28.0127 11.0393 28.0127 8.8696V8.84385C28.0127 7.06186 28.386 5.50826 29.0361 4.2063L29.3469 3.62161C29.3121 3.62746 29.2773 3.64451 29.2427 3.67929L11.5883 21.2196C11.5537 21.2481 11.5322 21.285 11.5222 21.323C11.8873 21.1419 12.3866 20.8944 12.4572 20.8633C13.9947 20.1683 15.8589 19.7874 18.0905 19.7874ZM88.7918 17.8775C88.0701 14.0066 85.773 12.0988 83.6962 11.3488C81.4555 10.5374 76.912 9.69689 71.2034 9.02275C66.6108 8.48086 61.2127 8.524 57.9521 8.62499C57.5607 5.93946 55.6807 3.48601 53.577 2.63665C47.972 0.376306 39.3122 0.922372 37.0887 1.54669C35.322 2.04142 33.3663 3.05531 32.2779 4.61777C31.548 5.66141 31.0757 6.99849 31.0721 8.86642C31.0721 9.92361 31.1014 12.414 31.1283 14.6267C31.155 16.8462 31.184 18.8314 31.184 18.8449C31.183 20.821 29.5845 22.4293 27.6035 22.4318H18.5159C16.5775 22.4318 15.0964 22.7582 13.965 23.2731C12.8319 23.7886 12.0293 24.4835 11.4196 25.3056C10.2058 26.9381 9.99508 28.9527 10.0001 31.0085C10.0001 31.0085 10.0179 32.6885 10.422 35.9402C10.7579 38.4562 13.4812 56.0323 16.0678 61.3778C17.0707 63.4575 17.7388 64.3238 19.7091 65.2405C24.0992 67.1237 34.1268 69.2186 38.8266 69.8186C43.5179 70.42 46.4623 71.6841 48.217 67.9979C48.2229 67.9887 48.5685 67.0809 49.0439 65.749C50.5674 61.1238 50.7793 57.0199 50.7793 54.0502C50.7793 53.7482 51.2215 53.7343 51.2215 54.0502C51.2215 56.1468 50.8218 63.5662 56.4158 65.5567C58.6241 66.3413 63.2053 67.0409 67.86 67.5875C72.0689 68.072 75.1233 69.7314 75.1233 80.5501C75.1233 87.1322 73.7433 88.0347 66.5298 88.0347C60.6824 88.0347 58.4537 88.1864 58.4537 83.5319C58.4537 79.7701 62.1671 80.1644 64.9193 80.1644C66.1485 80.1644 65.2564 79.2483 65.2564 76.9274C65.2564 74.6188 66.6975 73.2842 65.3345 73.2504C55.8177 72.9881 50.2181 73.2396 50.2181 85.1643C50.2181 95.9898 54.353 98 67.8598 98C78.45 98 82.1831 97.6526 86.5558 84.0589C87.4214 81.3754 89.5139 73.1859 90.7803 59.4356C91.5812 50.7415 90.0257 24.5005 88.7918 17.8775ZM70.3312 46.8821C69.0228 46.8363 67.7644 46.919 66.5909 47.108C66.9211 44.4357 68.0221 41.1566 71.922 41.2938C76.2392 41.4427 76.8441 45.5308 76.8595 48.2999C75.0391 47.4867 72.7856 46.9685 70.3312 46.8821Z" fill="#00A82D"/>
</svg>
