<svg width="69" height="100" viewBox="0 0 69 100" fill="none" xmlns="http://www.w3.org/2000/svg">
<path d="M17.3333 99C26.3493 99 33.6666 91.6826 33.6666 82.6666V66.3333H17.3333C8.31733 66.3333 1 73.6506 1 82.6666C1 91.6826 8.31733 99 17.3333 99Z" fill="#0ACF83"/>
<path d="M1 50.0001C1 40.9841 8.31733 33.6667 17.3333 33.6667H33.6666V66.3334H17.3333C8.31733 66.3334 1 59.0161 1 50.0001Z" fill="#A259FF"/>
<path d="M1 17.3333C1 8.31733 8.31733 1 17.3333 1H33.6666V33.6667H17.3333C8.31733 33.6667 1 26.3493 1 17.3333Z" fill="#F24E1E"/>
<path d="M33.6667 1H50.0001C59.0161 1 66.3335 8.31733 66.3335 17.3333C66.3335 26.3493 59.0161 33.6667 50.0001 33.6667H33.6667V1Z" fill="#FF7262"/>
<path d="M66.3335 50.0001C66.3335 59.0161 59.0161 66.3334 50.0001 66.3334C40.9841 66.3334 33.6667 59.0161 33.6667 50.0001C33.6667 40.9841 40.9841 33.6667 50.0001 33.6667C59.0161 33.6667 66.3335 40.9841 66.3335 50.0001Z" fill="#1ABCFE"/>
</svg>
