<svg width="100" height="100" viewBox="0 0 100 100" fill="none" xmlns="http://www.w3.org/2000/svg">
<rect width="100" height="100" fill="#2C2D35"/>
<path d="M40.1667 81C45.7787 81 50.3333 76.4453 50.3333 70.8333V60.6667H40.1667C34.5547 60.6667 30 65.2213 30 70.8333C30 76.4453 34.5547 81 40.1667 81Z" fill="#0ACF83"/>
<path d="M30 50.5C30 44.888 34.5547 40.3333 40.1667 40.3333H50.3333V60.6666H40.1667C34.5547 60.6666 30 56.112 30 50.5Z" fill="#A259FF"/>
<path d="M30 30.1667C30 24.5547 34.5547 20 40.1667 20H50.3333V40.3333H40.1667C34.5547 40.3333 30 35.7787 30 30.1667Z" fill="#F24E1E"/>
<path d="M50.3334 20H60.5001C66.1121 20 70.6667 24.5547 70.6667 30.1667C70.6667 35.7787 66.1121 40.3333 60.5001 40.3333H50.3334V20Z" fill="#FF7262"/>
<path d="M70.6667 50.5C70.6667 56.112 66.1121 60.6666 60.5001 60.6666C54.888 60.6666 50.3334 56.112 50.3334 50.5C50.3334 44.888 54.888 40.3333 60.5001 40.3333C66.1121 40.3333 70.6667 44.888 70.6667 50.5Z" fill="#1ABCFE"/>
</svg>
