<svg width="98" height="100" viewBox="0 0 98 100" fill="none" xmlns="http://www.w3.org/2000/svg">
<path d="M92.4497 32.7289C90.3885 27.7855 86.2073 22.448 82.9331 20.7607C85.2685 25.2688 86.8891 30.1102 87.7373 35.1128L87.7459 35.1921C82.3823 21.8636 73.2868 16.4895 65.8584 4.78719C65.4826 4.19549 65.1068 3.60257 64.7409 2.9767C64.5316 2.61924 64.3639 2.29716 64.2182 2.0007C63.9101 1.40602 63.6727 0.777531 63.5107 0.127996C63.511 0.0980232 63.5001 0.0690196 63.4802 0.046518C63.4604 0.0240164 63.4329 0.00959176 63.403 0.00599571C63.3738 -0.00199857 63.3429 -0.00199857 63.3137 0.00599571C63.3076 0.00599571 63.2978 0.0169757 63.2904 0.0194157C63.2831 0.0218558 63.2672 0.0328358 63.2562 0.0377158L63.2745 0.00599571C51.3589 6.96002 47.316 19.8335 46.944 26.2727C42.1854 26.5987 37.6359 28.3465 33.8888 31.2881C33.4979 30.958 33.0893 30.6493 32.6648 30.3633C31.5839 26.5922 31.5378 22.6011 32.5314 18.8063C28.1555 20.9192 24.2673 23.9144 21.1127 27.6025H21.0907C19.2106 25.2271 19.3428 17.3947 19.4505 15.7587C18.8944 15.9815 18.3634 16.2624 17.8667 16.5968C16.207 17.7775 14.6555 19.1023 13.2302 20.5557C11.6061 22.197 10.1227 23.971 8.79566 25.8591V25.8664V25.8579C5.74576 30.1676 3.58254 35.0368 2.43088 40.1844L2.36723 40.4967C2.27788 40.9127 1.95597 42.9965 1.90089 43.4491C1.90089 43.4845 1.89355 43.5174 1.88987 43.5528C1.47462 45.7041 1.2173 47.8827 1.11998 50.0713V50.3153C1.13038 62.1545 5.59617 73.5592 13.6347 82.2753C21.6733 90.9914 32.6998 96.3847 44.535 97.3894C56.3701 98.3941 68.1529 94.937 77.5545 87.7014C86.9561 80.4658 93.2925 69.9782 95.3114 58.3112C95.391 57.7012 95.4558 57.0973 95.5268 56.4812C96.5039 48.4319 95.4461 40.2668 92.4497 32.7289V32.7289ZM37.7738 69.7414C37.9953 69.8475 38.2034 69.9622 38.4311 70.0635L38.4641 70.0842C38.234 69.9744 38.0039 69.8601 37.7738 69.7414V69.7414ZM87.7495 35.2031V35.158L87.7581 35.208L87.7495 35.2031Z" fill="url(#paint0_linear)"/>
<path d="M92.4497 32.7289C90.3885 27.7855 86.2073 22.4479 82.9331 20.7607C85.2685 25.2687 86.8891 30.1102 87.7373 35.1128V35.1579L87.7459 35.208C91.4023 45.6371 90.8734 57.0713 86.2697 67.1208C80.8327 78.7487 67.6723 90.6669 47.0725 90.0874C24.8141 89.4591 5.2118 72.9964 1.54715 51.434C0.880077 48.0339 1.54715 46.31 1.88253 43.5467C1.42503 45.6931 1.16974 47.8775 1.11998 50.0713V50.3153C1.13038 62.1545 5.59617 73.5592 13.6347 82.2753C21.6733 90.9914 32.6998 96.3847 44.535 97.3894C56.3701 98.3941 68.1529 94.937 77.5545 87.7014C86.9561 80.4658 93.2925 69.9782 95.3114 58.3112C95.391 57.7012 95.4558 57.0973 95.5268 56.4812C96.5039 48.4319 95.4461 40.2668 92.4497 32.7289V32.7289Z" fill="url(#paint1_radial)"/>
<path d="M92.4497 32.7289C90.3885 27.7855 86.2073 22.4479 82.9331 20.7607C85.2685 25.2687 86.8891 30.1102 87.7373 35.1128V35.1579L87.7459 35.208C91.4023 45.6371 90.8734 57.0713 86.2697 67.1208C80.8327 78.7487 67.6723 90.6669 47.0725 90.0874C24.8141 89.4591 5.2118 72.9964 1.54715 51.434C0.880077 48.0339 1.54715 46.31 1.88253 43.5467C1.42503 45.6931 1.16974 47.8775 1.11998 50.0713V50.3153C1.13038 62.1545 5.59617 73.5592 13.6347 82.2753C21.6733 90.9914 32.6998 96.3847 44.535 97.3894C56.3701 98.3941 68.1529 94.937 77.5545 87.7014C86.9561 80.4658 93.2925 69.9782 95.3114 58.3112C95.391 57.7012 95.4558 57.0973 95.5268 56.4812C96.5039 48.4319 95.4461 40.2668 92.4497 32.7289V32.7289Z" fill="url(#paint2_radial)"/>
<path d="M69.3969 38.2873C69.4998 38.3592 69.5952 38.4312 69.6919 38.5032C68.5003 36.3971 67.0169 34.4688 65.2855 32.7753C50.5413 18.0767 61.4214 0.905124 63.2562 0.0328215L63.2745 0.00598145C51.3589 6.96 47.3161 19.8335 46.944 26.2727C47.4972 26.2348 48.0456 26.1885 48.611 26.1885C52.8389 26.1962 56.9894 27.3197 60.6404 29.4448C64.2913 31.5699 67.3126 34.6208 69.3969 38.2873V38.2873Z" fill="url(#paint3_radial)"/>
<path d="M48.6416 41.2226C48.5633 42.3987 44.3944 46.4552 42.9366 46.4552C29.4469 46.4552 27.2572 54.5889 27.2572 54.5889C27.8545 61.438 32.6428 67.0793 38.4311 70.0635C38.6954 70.2001 38.9635 70.3233 39.2316 70.4441C39.6959 70.6491 40.1602 70.8386 40.6245 71.0126C42.611 71.7134 44.6916 72.1135 46.7971 72.1997C70.441 73.305 75.0212 44.0176 57.9587 35.5191C61.9839 34.997 66.0601 35.9835 69.3969 38.2872C67.3126 34.6208 64.2913 31.5699 60.6404 29.4448C56.9894 27.3197 52.8389 26.1962 48.611 26.1885C48.048 26.1885 47.4972 26.2348 46.944 26.2727C42.1854 26.5987 37.6359 28.3465 33.8888 31.2881C34.6122 31.8981 35.4286 32.7131 37.1483 34.4028C40.3674 37.5638 48.6233 40.8383 48.6416 41.2226V41.2226Z" fill="url(#paint4_radial)"/>
<path d="M48.6416 41.2226C48.5633 42.3987 44.3944 46.4552 42.9366 46.4552C29.4469 46.4552 27.2572 54.5889 27.2572 54.5889C27.8545 61.438 32.6428 67.0793 38.4311 70.0635C38.6954 70.2001 38.9635 70.3233 39.2316 70.4441C39.6959 70.6491 40.1602 70.8386 40.6245 71.0126C42.611 71.7134 44.6916 72.1135 46.7971 72.1997C70.441 73.305 75.0212 44.0176 57.9587 35.5191C61.9839 34.997 66.0601 35.9835 69.3969 38.2872C67.3126 34.6208 64.2913 31.5699 60.6404 29.4448C56.9894 27.3197 52.8389 26.1962 48.611 26.1885C48.048 26.1885 47.4972 26.2348 46.944 26.2727C42.1854 26.5987 37.6359 28.3465 33.8888 31.2881C34.6122 31.8981 35.4286 32.7131 37.1483 34.4028C40.3674 37.5638 48.6233 40.8383 48.6416 41.2226V41.2226Z" fill="url(#paint5_radial)"/>
<path d="M31.6771 29.7155C32.0614 29.9595 32.3784 30.1718 32.6563 30.3633C31.5753 26.5922 31.5293 22.6011 32.5228 18.8062C28.147 20.9192 24.2587 23.9144 21.1042 27.6025C21.3355 27.5964 28.2168 27.4731 31.6771 29.7155V29.7155Z" fill="url(#paint6_radial)"/>
<path d="M1.55328 51.434C5.21425 72.9964 24.8202 89.4591 47.0786 90.0874C67.6785 90.6681 80.8389 78.7487 86.2759 67.1208C90.8795 57.0713 91.4084 45.6371 87.752 35.208V35.1628C87.752 35.1274 87.7447 35.1067 87.752 35.1177L87.7606 35.197C89.4436 46.149 83.8548 56.7593 75.1179 63.9342L75.091 63.9952C58.0676 77.8142 41.7762 72.3327 38.4788 70.0952C38.2487 69.9854 38.0186 69.8711 37.7885 69.7524C27.8631 65.0236 23.7627 56.0102 24.6415 48.2803C22.2855 48.315 19.9699 47.6678 17.9753 46.4173C15.9808 45.1668 14.3929 43.3666 13.404 41.2348C16.0094 39.6438 18.9802 38.7444 22.0332 38.6223C25.0862 38.5001 28.1198 39.1593 30.8447 40.5369C36.4627 43.079 42.8555 43.3295 48.6563 41.2348C48.638 40.8505 40.3821 37.5748 37.163 34.415C35.4433 32.7253 34.6269 31.9115 33.9035 31.3003C33.5126 30.9702 33.104 30.6615 32.6795 30.3755C32.398 30.184 32.081 29.9766 31.7003 29.7277C28.2401 27.4853 21.3588 27.6086 21.1311 27.6147H21.1091C19.229 25.2393 19.3612 17.4069 19.4689 15.7709C18.9127 15.9937 18.3818 16.2746 17.8851 16.609C16.2254 17.7897 14.6738 19.1145 13.2486 20.5679C11.6186 22.2046 10.1291 23.9745 8.79566 25.8591V25.8664V25.8579C5.74576 30.1676 3.58254 35.0368 2.43088 40.1844C2.40763 40.2807 0.722182 47.6252 1.55328 51.434V51.434Z" fill="url(#paint7_radial)"/>
<path d="M65.288 32.7753C67.0198 34.4707 68.5032 36.4011 69.6944 38.5093C69.9551 38.7057 70.1987 38.9009 70.4055 39.09C81.1608 48.9721 75.5255 62.9411 75.1057 63.9354C83.8425 56.7606 89.4264 46.1502 87.7483 35.1982C82.3823 21.8636 73.2868 16.4895 65.8584 4.78719C65.4826 4.19549 65.1068 3.60257 64.7409 2.9767C64.5316 2.61924 64.3639 2.29716 64.2182 2.0007C63.9101 1.40602 63.6727 0.777531 63.5107 0.127996C63.511 0.0980232 63.5001 0.0690196 63.4802 0.046518C63.4604 0.0240164 63.4329 0.00959176 63.403 0.00599571C63.3738 -0.00199857 63.3429 -0.00199857 63.3137 0.00599571C63.3076 0.00599571 63.2978 0.0169757 63.2904 0.0194157C63.2831 0.0218558 63.2672 0.0328358 63.2561 0.0377158C61.4214 0.905138 50.5413 18.0767 65.288 32.7753V32.7753Z" fill="url(#paint8_radial)"/>
<path d="M70.3982 39.0839C70.1913 38.8948 69.9477 38.6996 69.687 38.5032C69.5903 38.4312 69.4949 38.3592 69.3921 38.2873C66.0552 35.9835 61.979 34.997 57.9538 35.5191C75.0163 44.0225 70.4386 73.305 46.7922 72.1997C44.6867 72.1135 42.6061 71.7134 40.6196 71.0126C40.1553 70.8394 39.691 70.6499 39.2267 70.4441C38.9586 70.3221 38.6905 70.2001 38.4262 70.0635L38.4592 70.0842C41.7567 72.3278 58.0432 77.8093 75.0714 63.9842L75.0983 63.9232C75.5231 62.935 81.1583 48.9623 70.3982 39.0839V39.0839Z" fill="url(#paint9_radial)"/>
<path d="M27.2572 54.5889C27.2572 54.5889 29.4469 46.4552 42.9366 46.4552C44.3944 46.4552 48.567 42.3987 48.6416 41.2226C42.8408 43.3173 36.448 43.0668 30.83 40.5247C28.1051 39.1471 25.0715 38.4879 22.0185 38.6101C18.9655 38.7322 15.9947 39.6316 13.3893 41.2226C14.3782 43.3544 15.9661 45.1546 17.9606 46.4051C19.9552 47.6556 22.2708 48.3028 24.6268 48.2681C23.748 55.9993 27.8484 65.0127 37.7738 69.7402C37.9953 69.8463 38.2034 69.961 38.4311 70.0622C32.6379 67.0793 27.8545 61.438 27.2572 54.5889Z" fill="url(#paint10_radial)"/>
<path d="M92.4497 32.7289C90.3885 27.7855 86.2073 22.448 82.9331 20.7607C85.2685 25.2688 86.8891 30.1102 87.7373 35.1128L87.7459 35.1921C82.3823 21.8636 73.2868 16.4895 65.8584 4.78719C65.4826 4.19549 65.1068 3.60257 64.7409 2.9767C64.5316 2.61924 64.3639 2.29716 64.2182 2.0007C63.9101 1.40602 63.6727 0.777531 63.5107 0.127996C63.511 0.0980232 63.5001 0.0690196 63.4802 0.046518C63.4604 0.0240164 63.4329 0.00959176 63.403 0.00599571C63.3738 -0.00199857 63.3429 -0.00199857 63.3137 0.00599571C63.3076 0.00599571 63.2978 0.0169757 63.2904 0.0194157C63.2831 0.0218558 63.2672 0.0328358 63.2562 0.0377158L63.2745 0.00599571C51.3589 6.96002 47.316 19.8335 46.944 26.2727C47.4972 26.2349 48.0455 26.1885 48.611 26.1885C52.8389 26.1962 56.9894 27.3197 60.6404 29.4449C64.2913 31.57 67.3126 34.6208 69.3969 38.2873C66.0601 35.9835 61.9839 34.997 57.9587 35.5191C75.0212 44.0225 70.4435 73.305 46.7971 72.1997C44.6916 72.1135 42.611 71.7134 40.6245 71.0126C40.1602 70.8394 39.6959 70.6499 39.2316 70.4441C38.9635 70.3221 38.6954 70.2001 38.4311 70.0635L38.4641 70.0842C38.234 69.9744 38.0039 69.8601 37.7738 69.7414C37.9953 69.8475 38.2034 69.9622 38.4311 70.0635C32.6379 67.0793 27.8545 61.4381 27.2572 54.589C27.2572 54.589 29.4469 46.4552 42.9366 46.4552C44.3944 46.4552 48.567 42.3987 48.6416 41.2226C48.6233 40.8383 40.3674 37.5626 37.1483 34.4028C35.4286 32.7131 34.6122 31.8993 33.8888 31.2881C33.4979 30.958 33.0893 30.6493 32.6648 30.3633C31.5839 26.5922 31.5378 22.6011 32.5314 18.8063C28.1555 20.9192 24.2673 23.9144 21.1127 27.6025H21.0907C19.2106 25.2271 19.3428 17.3947 19.4505 15.7587C18.8944 15.9815 18.3634 16.2624 17.8667 16.5968C16.207 17.7775 14.6555 19.1023 13.2302 20.5557C11.6061 22.197 10.1227 23.971 8.79566 25.8591V25.8664V25.8579C5.74576 30.1676 3.58254 35.0368 2.43088 40.1844L2.36723 40.4967C2.27788 40.9127 1.87763 43.0258 1.82011 43.4796C1.82011 43.5138 1.82011 43.4442 1.82011 43.4796C1.45402 45.6608 1.22022 47.862 1.11998 50.0713V50.3153C1.13038 62.1545 5.59617 73.5592 13.6347 82.2753C21.6733 90.9914 32.6998 96.3847 44.535 97.3894C56.3701 98.3941 68.1529 94.937 77.5545 87.7014C86.9561 80.4658 93.2925 69.9782 95.3114 58.3112C95.391 57.7012 95.4558 57.0973 95.5268 56.4812C96.5039 48.4319 95.4461 40.2668 92.4497 32.7289V32.7289ZM87.7434 35.158L87.752 35.208L87.7434 35.158Z" fill="url(#paint11_linear)"/>
<defs>
<linearGradient id="paint0_linear" x1="86.1706" y1="15.1145" x2="7.66802" y2="91.1026" gradientUnits="userSpaceOnUse">
<stop offset="0.048" stop-color="#FFF44F"/>
<stop offset="0.111" stop-color="#FFE847"/>
<stop offset="0.225" stop-color="#FFC830"/>
<stop offset="0.368" stop-color="#FF980E"/>
<stop offset="0.401" stop-color="#FF8B16"/>
<stop offset="0.462" stop-color="#FF672A"/>
<stop offset="0.534" stop-color="#FF3647"/>
<stop offset="0.705" stop-color="#E31587"/>
</linearGradient>
<radialGradient id="paint1_radial" cx="0" cy="0" r="1" gradientUnits="userSpaceOnUse" gradientTransform="translate(82.5316 10.8273) scale(98.8952 98.5726)">
<stop offset="0.129" stop-color="#FFBD4F"/>
<stop offset="0.186" stop-color="#FFAC31"/>
<stop offset="0.247" stop-color="#FF9D17"/>
<stop offset="0.283" stop-color="#FF980E"/>
<stop offset="0.403" stop-color="#FF563B"/>
<stop offset="0.467" stop-color="#FF3750"/>
<stop offset="0.71" stop-color="#F5156C"/>
<stop offset="0.782" stop-color="#EB0878"/>
<stop offset="0.86" stop-color="#E50080"/>
</radialGradient>
<radialGradient id="paint2_radial" cx="0" cy="0" r="1" gradientUnits="userSpaceOnUse" gradientTransform="translate(46.3945 51.1267) scale(98.8952 98.5726)">
<stop offset="0.3" stop-color="#960E18"/>
<stop offset="0.351" stop-color="#B11927" stop-opacity="0.74"/>
<stop offset="0.435" stop-color="#DB293D" stop-opacity="0.343"/>
<stop offset="0.497" stop-color="#F5334B" stop-opacity="0.094"/>
<stop offset="0.53" stop-color="#FF3750" stop-opacity="0"/>
</radialGradient>
<radialGradient id="paint3_radial" cx="0" cy="0" r="1" gradientUnits="userSpaceOnUse" gradientTransform="translate(58.3171 -11.5426) scale(71.6454 71.4117)">
<stop offset="0.132" stop-color="#FFF44F"/>
<stop offset="0.252" stop-color="#FFDC3E"/>
<stop offset="0.506" stop-color="#FF9D12"/>
<stop offset="0.526" stop-color="#FF980E"/>
</radialGradient>
<radialGradient id="paint4_radial" cx="0" cy="0" r="1" gradientUnits="userSpaceOnUse" gradientTransform="translate(35.4556 76.8742) scale(47.0884 46.9348)">
<stop offset="0.353" stop-color="#3A8EE6"/>
<stop offset="0.472" stop-color="#5C79F0"/>
<stop offset="0.669" stop-color="#9059FF"/>
<stop offset="1" stop-color="#C139E6"/>
</radialGradient>
<radialGradient id="paint5_radial" cx="0" cy="0" r="1" gradientUnits="userSpaceOnUse" gradientTransform="translate(51.7985 43.0483) rotate(-13.5489) scale(24.9615 29.1388)">
<stop offset="0.206" stop-color="#9059FF" stop-opacity="0"/>
<stop offset="0.278" stop-color="#8C4FF3" stop-opacity="0.064"/>
<stop offset="0.747" stop-color="#7716A8" stop-opacity="0.45"/>
<stop offset="0.975" stop-color="#6E008B" stop-opacity="0.6"/>
</radialGradient>
<radialGradient id="paint6_radial" cx="0" cy="0" r="1" gradientUnits="userSpaceOnUse" gradientTransform="translate(45.1459 6.79431) scale(33.8753 33.7648)">
<stop stop-color="#FFE226"/>
<stop offset="0.121" stop-color="#FFDB27"/>
<stop offset="0.295" stop-color="#FFC82A"/>
<stop offset="0.502" stop-color="#FFA930"/>
<stop offset="0.732" stop-color="#FF7E37"/>
<stop offset="0.792" stop-color="#FF7139"/>
</radialGradient>
<radialGradient id="paint7_radial" cx="0" cy="0" r="1" gradientUnits="userSpaceOnUse" gradientTransform="translate(71.7726 -14.6224) scale(144.531 144.059)">
<stop offset="0.113" stop-color="#FFF44F"/>
<stop offset="0.456" stop-color="#FF980E"/>
<stop offset="0.622" stop-color="#FF5634"/>
<stop offset="0.716" stop-color="#FF3647"/>
<stop offset="0.904" stop-color="#E31587"/>
</radialGradient>
<radialGradient id="paint8_radial" cx="0" cy="0" r="1" gradientUnits="userSpaceOnUse" gradientTransform="translate(59.5913 -6.6119) rotate(83.9564) scale(105.588 69.5184)">
<stop stop-color="#FFF44F"/>
<stop offset="0.06" stop-color="#FFE847"/>
<stop offset="0.168" stop-color="#FFC830"/>
<stop offset="0.304" stop-color="#FF980E"/>
<stop offset="0.356" stop-color="#FF8B16"/>
<stop offset="0.455" stop-color="#FF672A"/>
<stop offset="0.57" stop-color="#FF3647"/>
<stop offset="0.737" stop-color="#E31587"/>
</radialGradient>
<radialGradient id="paint9_radial" cx="0" cy="0" r="1" gradientUnits="userSpaceOnUse" gradientTransform="translate(44.3481 19.3006) scale(90.233 89.9387)">
<stop offset="0.137" stop-color="#FFF44F"/>
<stop offset="0.48" stop-color="#FF980E"/>
<stop offset="0.592" stop-color="#FF5634"/>
<stop offset="0.655" stop-color="#FF3647"/>
<stop offset="0.904" stop-color="#E31587"/>
</radialGradient>
<radialGradient id="paint10_radial" cx="0" cy="0" r="1" gradientUnits="userSpaceOnUse" gradientTransform="translate(68.167 24.5643) scale(98.7594 98.4372)">
<stop offset="0.094" stop-color="#FFF44F"/>
<stop offset="0.231" stop-color="#FFE141"/>
<stop offset="0.509" stop-color="#FFAF1E"/>
<stop offset="0.626" stop-color="#FF980E"/>
</radialGradient>
<linearGradient id="paint11_linear" x1="85.2244" y1="14.7095" x2="18.4345" y2="81.7168" gradientUnits="userSpaceOnUse">
<stop offset="0.167" stop-color="#FFF44F" stop-opacity="0.8"/>
<stop offset="0.266" stop-color="#FFF44F" stop-opacity="0.634"/>
<stop offset="0.489" stop-color="#FFF44F" stop-opacity="0.217"/>
<stop offset="0.6" stop-color="#FFF44F" stop-opacity="0"/>
</linearGradient>
</defs>
</svg>
