<svg width="100" height="100" viewBox="0 0 100 100" fill="none" xmlns="http://www.w3.org/2000/svg">
<rect width="100" height="100" fill="#252525"/>
<path d="M74.7224 64.4711C73.7922 66.719 72.6912 68.7883 71.4155 70.6907C69.6767 73.2841 68.253 75.0793 67.1558 76.0762C65.4549 77.7125 63.6325 78.5505 61.6811 78.5982C60.2802 78.5982 58.5907 78.1812 56.624 77.3352C54.651 76.4932 52.8377 76.0762 51.1797 76.0762C49.4409 76.0762 47.576 76.4932 45.5813 77.3352C43.5835 78.1812 41.9742 78.622 40.7437 78.6657C38.8724 78.7491 37.0071 77.8873 35.1453 76.0762C33.9569 74.992 32.4706 73.1332 30.69 70.5C28.7795 67.6881 27.2089 64.4274 25.9784 60.7099C24.6606 56.6946 24 52.8064 24 49.0421C24 44.7301 24.8907 41.011 26.6747 37.8945C28.0768 35.3912 29.942 33.4165 32.2766 31.9668C34.6111 30.5172 37.1335 29.7784 39.85 29.7312C41.3363 29.7312 43.2855 30.2121 45.7077 31.1574C48.1231 32.1058 49.674 32.5868 50.354 32.5868C50.8624 32.5868 52.5852 32.0244 55.506 30.9032C58.268 29.8634 60.5991 29.4329 62.5088 29.6025C67.6835 30.0394 71.5712 32.1733 74.1567 36.0179C69.5286 38.9513 67.2393 43.06 67.2849 48.3307C67.3266 52.4362 68.7503 55.8526 71.5484 58.5653C72.8165 59.8243 74.2326 60.7973 75.8082 61.4884C75.4665 62.525 75.1058 63.5179 74.7224 64.4711V64.4711ZM62.8542 15.616C62.8542 18.8338 61.7305 21.8383 59.4905 24.6193C56.7873 27.9253 53.5177 29.8356 49.9721 29.5342C49.9269 29.1481 49.9007 28.7418 49.9007 28.3149C49.9007 25.2258 51.1862 21.9198 53.4691 19.2167C54.6088 17.848 56.0584 16.71 57.8162 15.8022C59.5702 14.908 61.2293 14.4135 62.7897 14.3288C62.8353 14.7589 62.8542 15.1891 62.8542 15.6159V15.616Z" fill="white"/>
</svg>
