<svg width="81" height="100" viewBox="0 0 81 100" fill="none" xmlns="http://www.w3.org/2000/svg">
<path d="M77.3652 76.5925C75.9648 79.9814 74.3072 83.1008 72.3866 85.9688C69.7687 89.8787 67.6252 92.585 65.9733 94.0879C63.4126 96.5547 60.6689 97.818 57.7309 97.8899C55.6217 97.8899 53.0781 97.2612 50.1173 95.9859C47.1467 94.7165 44.4167 94.0879 41.9206 94.0879C39.3027 94.0879 36.495 94.7165 33.4918 95.9859C30.4841 97.2612 28.0611 97.9258 26.2085 97.9917C23.3911 98.1174 20.5829 96.8181 17.7798 94.0879C15.9907 92.4533 13.7529 89.6511 11.0721 85.6814C8.19582 81.4423 5.83113 76.5266 3.97859 70.9223C1.99458 64.869 1 59.0072 1 53.3323C1 46.8317 2.34096 41.2251 5.02689 36.5267C7.1378 32.7528 9.94605 29.7758 13.4608 27.5904C16.9755 25.405 20.7732 24.2913 24.863 24.22C27.1008 24.22 30.0354 24.9451 33.6822 26.3701C37.3186 27.7999 39.6536 28.525 40.6773 28.525C41.4427 28.525 44.0366 27.6772 48.4339 25.9869C52.5923 24.4194 56.1019 23.7704 58.977 24.026C66.7678 24.6847 72.621 27.9017 76.5136 33.6976C69.5458 38.12 66.0991 44.314 66.1677 52.26C66.2305 58.4492 68.374 63.5996 72.5867 67.6891C74.4958 69.5871 76.6279 71.054 79 72.0959C78.4856 73.6586 77.9426 75.1555 77.3652 76.5925V76.5925ZM59.4972 2.94055C59.4972 7.79166 57.8052 12.3211 54.4328 16.5136C50.363 21.4975 45.4405 24.3775 40.1023 23.9231C40.0343 23.3411 39.9949 22.7286 39.9949 22.0849C39.9949 17.4278 41.9303 12.4439 45.3673 8.36879C47.0832 6.30551 49.2656 4.58992 51.9121 3.22136C54.5528 1.87322 57.0507 1.12767 59.4 1C59.4686 1.64852 59.4972 2.29708 59.4972 2.94049V2.94055Z" fill="white"/>
</svg>
