<svg width="100" height="100" viewBox="0 0 100 100" fill="none" xmlns="http://www.w3.org/2000/svg">
<path fill-rule="evenodd" clip-rule="evenodd" d="M21.082 63.2166C21.082 69.0287 16.3883 73.7261 10.5808 73.7261C4.7733 73.7261 0.0795898 69.0287 0.0795898 63.2166C0.0795898 57.4045 4.7733 52.707 10.5808 52.707H21.082V63.2166ZM26.3326 63.2166C26.3326 57.4045 31.0263 52.707 36.8338 52.707C42.6412 52.707 47.335 57.4045 47.335 63.2166V89.4905C47.335 95.3026 42.6412 100 36.8338 100C31.0263 100 26.3326 95.3026 26.3326 89.4905V63.2166Z" fill="#E01E5A"/>
<path fill-rule="evenodd" clip-rule="evenodd" d="M36.8337 21.0191C31.0263 21.0191 26.3325 16.3217 26.3325 10.5096C26.3325 4.69745 31.0263 0 36.8337 0C42.6412 0 47.3349 4.69745 47.3349 10.5096V21.0191H36.8337ZM36.8337 26.3535C42.6412 26.3535 47.3349 31.051 47.3349 36.8631C47.3349 42.6752 42.6412 47.3726 36.8337 47.3726H10.5012C4.69371 47.3726 0 42.6752 0 36.8631C0 31.051 4.69371 26.3535 10.5012 26.3535H36.8337Z" fill="#36C5F0"/>
<path fill-rule="evenodd" clip-rule="evenodd" d="M78.9181 36.8631C78.9181 31.051 83.6118 26.3535 89.4193 26.3535C95.2267 26.3535 99.9205 31.051 99.9205 36.8631C99.9205 42.6752 95.2267 47.3726 89.4193 47.3726H78.9181V36.8631ZM73.6675 36.8631C73.6675 42.6752 68.9738 47.3726 63.1663 47.3726C57.3588 47.3726 52.6651 42.6752 52.6651 36.8631V10.5096C52.6651 4.69745 57.3588 0 63.1663 0C68.9738 0 73.6675 4.69745 73.6675 10.5096V36.8631V36.8631Z" fill="#2EB67D"/>
<path fill-rule="evenodd" clip-rule="evenodd" d="M63.1663 78.9809C68.9738 78.9809 73.6675 83.6783 73.6675 89.4905C73.6675 95.3026 68.9738 100 63.1663 100C57.3588 100 52.6651 95.3026 52.6651 89.4905V78.9809H63.1663ZM63.1663 73.7261C57.3588 73.7261 52.6651 69.0287 52.6651 63.2166C52.6651 57.4045 57.3588 52.707 63.1663 52.707H89.4988C95.3063 52.707 100 57.4045 100 63.2166C100 69.0287 95.3063 73.7261 89.4988 73.7261H63.1663Z" fill="#ECB22E"/>
</svg>
