<svg width="100" height="100" viewBox="0 0 100 100" fill="none" xmlns="http://www.w3.org/2000/svg">
<rect width="100" height="100" fill="#FFFEFC"/>
<path fill-rule="evenodd" clip-rule="evenodd" d="M58.1511 19.1414L23.7415 21.6734C20.967 21.9136 20 23.7223 20 25.8907V63.4986C20 65.1883 20.6026 66.6325 22.0522 68.5628L30.1409 79.0497C31.4696 80.7384 32.6769 81.0996 35.214 80.9787L75.1736 78.5675C78.5532 78.3276 79.52 76.7594 79.52 74.1077V31.7978C79.52 30.427 78.9773 30.031 77.3773 28.8638C77.2892 28.7997 77.1979 28.7332 77.1034 28.6639L66.1195 20.9497C63.4636 19.0218 62.3766 18.7792 58.1511 19.1414ZM36.12 31.1038C32.8576 31.3239 32.1162 31.374 30.2635 29.8698L25.5521 26.1333C25.0716 25.6501 25.3126 25.0475 26.5191 24.9278L59.6 22.5168C62.376 22.2753 63.8245 23.2412 64.9116 24.0844L70.5856 28.1832C70.8272 28.3033 71.4298 29.0256 70.705 29.0256L36.5412 31.0755L36.12 31.1038ZM32.3146 73.7454V37.8259C32.3146 36.2591 32.7976 35.5354 34.2455 35.4137L73.4816 33.1242C74.8125 33.0037 75.4152 33.8482 75.4152 35.4137V71.0924C75.4152 72.6606 75.173 73.9882 72.999 74.1077L35.4531 76.2787C33.2802 76.3981 32.3146 75.6758 32.3146 73.7454ZM69.3801 39.7526C69.6209 40.8387 69.3801 41.9235 68.2914 42.0456L66.4822 42.4058V68.9238C64.9116 69.7675 63.4632 70.2498 62.2563 70.2498C60.324 70.2498 59.84 69.6466 58.3927 67.8395L46.5593 49.2767V67.2368L50.3037 68.0811C50.3037 68.0811 50.3037 70.2498 47.2829 70.2498L38.9546 70.7326C38.7126 70.2498 38.9546 69.0454 39.7993 68.804L41.9726 68.2022V44.4555L38.9551 44.2139C38.713 43.1281 39.3157 41.5624 41.0073 41.4409L49.9417 40.8391L62.2563 59.6435V43.0085L59.1166 42.6484C58.8754 41.3208 59.84 40.3569 61.0475 40.2373L69.3801 39.7526Z" fill="black"/>
</svg>
