<svg width="97" height="100" viewBox="0 0 97 100" fill="none" xmlns="http://www.w3.org/2000/svg">
<path fill-rule="evenodd" clip-rule="evenodd" d="M61.2779 1.2235L6.91148 5.22576C2.52783 5.60534 1 8.46433 1 11.8917V71.3366C1 74.0074 1.95216 76.2901 4.24243 79.3412L17.0225 95.9172C19.1217 98.5864 21.0293 99.1574 25.0378 98.9663L88.1732 95.1551C93.5129 94.7759 95.0404 92.2971 95.0404 88.1057V21.2288C95.0404 19.062 94.1829 18.4362 91.6549 16.5911C91.5158 16.4899 91.3715 16.3847 91.2223 16.2753L73.8679 4.08171C69.6717 1.03449 67.9542 0.651053 61.2779 1.2235ZM26.4693 20.1319C21.3147 20.4798 20.1434 20.5588 17.2161 18.1814L9.77221 12.2752C9.01303 11.5115 9.39376 10.5589 11.3 10.3698L63.5672 6.55888C67.9532 6.17701 70.2418 7.70385 71.9594 9.03665L80.9242 15.5154C81.3059 15.7052 82.2581 16.8469 81.113 16.8469L27.1347 20.0871L26.4693 20.1319ZM20.4569 87.533V30.757C20.4569 28.2806 21.22 27.1366 23.5077 26.9442L85.4999 23.3254C87.6027 23.1349 88.5549 24.4697 88.5549 26.9442V83.3396C88.5549 85.8183 88.1722 87.9168 84.7374 88.1057L25.4156 91.5373C21.9824 91.7261 20.4569 90.5844 20.4569 87.533ZM79.0196 33.8025C79.4 35.5192 79.0196 37.2339 77.2994 37.4269L74.441 37.9963V79.9119C71.9594 81.2453 69.671 82.0078 67.7641 82.0078C64.7111 82.0078 63.9463 81.0542 61.6597 78.1979L42.9632 48.8567V77.2453L48.8793 78.5797C48.8793 78.5797 48.8793 82.0078 44.1064 82.0078L30.948 82.7709C30.5656 82.0078 30.9479 80.104 32.2825 79.7224L35.7163 78.7712V41.2362L30.9486 40.8543C30.5662 39.138 31.5184 36.6632 34.191 36.4711L48.3072 35.5198L67.7641 65.2429V38.9489L62.8035 38.3798C62.4224 36.2813 63.9463 34.7577 65.8542 34.5686L79.0196 33.8025Z" fill="white"/>
</svg>
