<svg width="100" height="100" viewBox="0 0 100 100" fill="none" xmlns="http://www.w3.org/2000/svg">
<rect width="100" height="100" fill="#FFFEFC"/>
<path fill-rule="evenodd" clip-rule="evenodd" d="M58.5357 20.1391L24.6811 22.6303C21.9514 22.8666 21 24.6462 21 26.7795V63.7809C21 65.4434 21.5929 66.8643 23.0191 68.7634L30.9774 79.0811C32.2846 80.7426 33.4725 81.098 35.9686 80.979L75.2837 78.6068C78.6088 78.3707 79.56 76.8278 79.56 74.2188V32.5914C79.56 31.2427 79.026 30.8531 77.4518 29.7047C77.3652 29.6417 77.2753 29.5762 77.1824 29.5081L66.3757 21.9182C63.7626 20.0215 62.6931 19.7828 58.5357 20.1391ZM36.86 31.9086C33.6502 32.1252 32.9208 32.1744 31.0979 30.6945L26.4625 27.0183C25.9898 26.5429 26.2269 25.9499 27.4139 25.8322L59.9613 23.4601C62.6925 23.2224 64.1176 24.1728 65.1872 25.0024L70.7697 29.0351C71.0074 29.1532 71.6003 29.8639 70.8872 29.8639L37.2744 31.8808L36.86 31.9086ZM33.116 73.8624V38.5222C33.116 36.9808 33.5912 36.2687 35.0158 36.1489L73.619 33.8964C74.9285 33.7779 75.5214 34.6087 75.5214 36.1489V71.2522C75.5214 72.7951 75.2831 74.1013 73.1442 74.2188L36.2038 76.3548C34.066 76.4724 33.116 75.7617 33.116 73.8624ZM69.5836 40.4179C69.8205 41.4864 69.5836 42.5537 68.5125 42.6739L66.7325 43.0283V69.1186C65.1872 69.9486 63.7622 70.4232 62.5747 70.4232C60.6736 70.4232 60.1974 69.8297 58.7734 68.0517L47.131 49.7883V67.4588L50.815 68.2894C50.815 68.2894 50.815 70.4232 47.8428 70.4232L39.6489 70.8982C39.4108 70.4232 39.6489 69.2382 40.4799 69.0007L42.6182 68.4086V45.045L39.6493 44.8073C39.4112 43.739 40.0041 42.1985 41.6684 42.0789L50.4587 41.4868L62.5747 59.9879V43.6212L59.4857 43.267C59.2484 41.9608 60.1974 41.0125 61.3855 40.8947L69.5836 40.4179Z" fill="black"/>
</svg>
