<svg width="100" height="98" viewBox="0 0 100 98" fill="none" xmlns="http://www.w3.org/2000/svg">
<path d="M4 4H96V94H4V4Z" fill="#001D26"/>
<path d="M0 0V98H100V0H0ZM4.16667 4.18803H95.8333V93.812H4.16667V4.18803ZM24.1667 22.9504C24.1667 22.6573 24.75 22.4479 25.0833 22.4479C27.75 22.3222 31.7083 22.2385 35.8333 22.2385C47.375 22.2385 51.875 28.6043 51.875 36.7709C51.875 47.4085 44.2083 51.9735 34.7917 51.9735C33.2083 51.9735 32.6667 51.8897 31.5417 51.8897V67.9718C31.5417 68.3068 31.4167 68.4744 31.0417 68.4744H24.6667C24.3333 68.4744 24.1667 68.3487 24.1667 67.9718V22.9504ZM31.5833 45.1889C32.5417 45.2727 33.2917 45.2726 34.9583 45.2726C39.8333 45.2726 44.4167 43.5556 44.4167 36.8966C44.4167 31.5778 41.125 28.8974 35.5833 28.8974C33.9167 28.8974 32.3333 28.9812 31.5833 29.0231V45.1889ZM67.4167 40.2051C64.125 40.2051 63 41.8803 63 43.2624C63 44.7701 63.75 45.8171 68.1667 48.1205C74.7083 51.3034 76.75 54.3607 76.75 58.8419C76.75 65.5427 71.6667 69.1444 64.7917 69.1444C61.1667 69.1444 58.0417 68.3906 56.25 67.3436C55.9583 67.218 55.9167 67.0085 55.9167 66.6735V60.5171C55.9167 60.0983 56.125 59.9726 56.4167 60.1821C59.0417 61.8991 62.0417 62.653 64.7917 62.653C68.0833 62.653 69.4583 61.2709 69.4583 59.3863C69.4583 57.8786 68.5 56.5385 64.2917 54.3607C58.375 51.5128 55.9167 48.6231 55.9167 43.8068C55.9167 38.4043 60.125 33.9231 67.4167 33.9231C71 33.9231 73.5 34.4675 74.875 35.0957C75.2083 35.3051 75.2917 35.6402 75.2917 35.9333V41.6709C75.2917 42.006 75.0833 42.2154 74.6667 42.0897C72.8333 40.9171 70.125 40.2051 67.4167 40.2051Z" fill="#00C8FF"/>
</svg>
