<svg width="100" height="100" viewBox="0 0 100 100" fill="none" xmlns="http://www.w3.org/2000/svg">
<g opacity="0.53" filter="url(#filter0_f)">
<path d="M95.2941 51.8803C95.2941 57.5447 94.1355 63.1537 91.8844 68.3869C89.6333 73.6202 86.3337 78.3752 82.1742 82.3806C78.0147 86.3859 73.0766 89.5632 67.642 91.7308C62.2073 93.8985 56.3824 95.0142 50.5 95.0142C44.6175 95.0142 38.7927 93.8985 33.358 91.7308C27.9233 89.5632 22.9853 86.3859 18.8257 82.3806C14.6662 78.3752 11.3667 73.6202 9.11559 68.3869C6.86448 63.1537 5.70584 57.5447 5.70584 51.8803C5.70584 40.4405 10.4252 29.4692 18.8257 21.3801C27.2263 13.2909 38.6198 8.74646 50.5 8.74646C56.3824 8.74646 62.2073 9.86215 67.642 12.0298C73.0766 14.1975 78.0147 17.3747 82.1742 21.3801C86.3337 25.3854 89.6333 30.1405 91.8844 35.3737C94.1355 40.607 95.2941 46.2159 95.2941 51.8803V51.8803Z" fill="black"/>
</g>
<path d="M97 48.0728C97 54.1792 95.7972 60.2259 93.4604 65.8675C91.1235 71.5092 87.6984 76.6353 83.3805 80.9532C79.0625 85.2712 73.9364 88.6963 68.2948 91.0332C62.6531 93.37 56.6064 94.5728 50.5 94.5728C38.1674 94.5728 26.34 89.6737 17.6195 80.9532C8.89908 72.2328 4 60.4053 4 48.0728C4 35.7402 8.89908 23.9127 17.6195 15.1923C26.34 6.47186 38.1674 1.57276 50.5 1.57275C56.6064 1.57275 62.6531 2.77552 68.2948 5.11236C73.9364 7.4492 79.0625 10.8744 83.3805 15.1923C87.6984 19.5102 91.1235 24.6363 93.4604 30.278C95.7972 35.9196 97 41.9663 97 48.0728V48.0728Z" fill="url(#paint0_linear)" stroke="#CDCDCD" stroke-width="0.13807" stroke-linecap="round" stroke-linejoin="round"/>
<path d="M93.3557 48.0722C93.3557 59.4384 88.8405 70.339 80.8034 78.3762C72.7663 86.4133 61.8656 90.9285 50.4994 90.9285C39.1332 90.9285 28.2325 86.4133 20.1954 78.3762C12.1583 70.339 7.6431 59.4384 7.6431 48.0722C7.6431 36.706 12.1583 25.8053 20.1954 17.7682C28.2325 9.73109 39.1332 5.21588 50.4994 5.21588C61.8656 5.21588 72.7663 9.73109 80.8034 17.7682C88.8405 25.8053 93.3557 36.706 93.3557 48.0722Z" fill="url(#paint1_radial)"/>
<path d="M50.499 7.45044C50.1529 7.45044 49.8742 7.72909 49.8742 8.07526V15.2824C49.8742 15.6286 50.1529 15.9072 50.499 15.9072C50.8452 15.9072 51.1239 15.6286 51.1239 15.2824V8.07526C51.1239 7.72909 50.8452 7.45044 50.499 7.45044ZM46.4114 7.70879C46.37 7.70434 46.3274 7.70434 46.2844 7.70931C45.9401 7.74524 45.6918 8.0513 45.7278 8.3956L46.0427 11.4108C46.0786 11.7551 46.3848 12.0033 46.729 11.9674C47.0733 11.9315 47.3216 11.6254 47.2856 11.2811L46.9709 8.26593C46.9395 7.96466 46.7011 7.73692 46.4114 7.70879H46.4114ZM54.6152 7.71176C54.3255 7.73967 54.0871 7.96738 54.0554 8.2686L53.7383 11.2835C53.7021 11.6278 53.9504 11.9342 54.2946 11.9704C54.6389 12.0066 54.945 11.7586 54.9812 11.4143L55.2983 8.39914C55.3346 8.05487 55.0863 7.74874 54.742 7.71255C54.6989 7.7081 54.6567 7.7081 54.6152 7.71178V7.71176ZM42.2124 8.31769C42.1708 8.31801 42.1286 8.32214 42.0862 8.33105C41.7476 8.40275 41.5326 8.73318 41.6043 9.07184L43.097 16.1226C43.1687 16.4612 43.4991 16.6762 43.8377 16.6045C44.1764 16.5328 44.3913 16.2026 44.3196 15.864L42.827 8.81296C42.7642 8.51663 42.5035 8.31503 42.2125 8.3173L42.2124 8.31769ZM58.814 8.32364C58.5229 8.32067 58.2621 8.52246 58.1992 8.81874L56.7014 15.8687C56.6294 16.2073 56.8442 16.5378 57.1828 16.6097C57.5214 16.6817 57.8519 16.4669 57.9238 16.1284L59.4216 9.0784C59.4936 8.73981 59.2787 8.40929 58.9402 8.33737C58.8979 8.32846 58.8556 8.324 58.814 8.324L58.814 8.32364ZM38.2051 9.44759C38.1242 9.44016 38.0407 9.44908 37.9584 9.4764C37.6291 9.58343 37.4501 9.93433 37.5571 10.2636L38.494 13.1469C38.601 13.4761 38.9522 13.6551 39.2814 13.5481C39.6106 13.4411 39.7894 13.0899 39.6824 12.7607L38.7456 9.8774C38.6654 9.63048 38.4478 9.46818 38.2051 9.44754V9.44759ZM62.7986 9.44908C62.556 9.46972 62.3384 9.63202 62.2582 9.87892L61.3208 12.762C61.2138 13.0912 61.3927 13.4424 61.7218 13.5494C62.051 13.6564 62.4023 13.4775 62.5093 13.1484L63.4466 10.2651C63.5536 9.93588 63.3748 9.58468 63.0457 9.47767C62.9634 9.45095 62.8795 9.44219 62.7986 9.44901V9.44908ZM34.2424 10.8977C34.1612 10.8992 34.079 10.917 33.9999 10.9522C33.6838 11.0928 33.5422 11.4605 33.6828 11.7769L36.6101 18.3627C36.7506 18.679 37.1184 18.8204 37.4347 18.6798C37.7508 18.5393 37.8927 18.1715 37.7521 17.8552L34.8246 11.2694C34.7192 11.0321 34.4859 10.893 34.2424 10.8977V10.8977ZM66.8062 10.9199C66.5627 10.9154 66.3292 11.0536 66.2234 11.2906L63.2872 17.8724C63.1462 18.1886 63.2872 18.5566 63.6033 18.6976C63.9195 18.8387 64.2875 18.6977 64.4285 18.3816L67.3647 11.7998C67.5057 11.4837 67.3647 11.1156 67.0486 10.9746C66.9696 10.9394 66.8873 10.9216 66.8062 10.9198V10.9199ZM30.5641 12.844C30.4441 12.835 30.3205 12.8617 30.2081 12.9268C29.9083 13.0998 29.8063 13.4805 29.9794 13.7803L31.4952 16.4058C31.6683 16.7056 32.049 16.8075 32.3488 16.6344C32.6485 16.4614 32.7505 16.0807 32.5774 15.7809L31.0616 13.1555C30.9534 12.9681 30.764 12.858 30.5641 12.844V12.844ZM70.434 12.844C70.2341 12.8573 70.0449 12.968 69.9367 13.1554L68.4206 15.7809C68.2476 16.0807 68.3499 16.4613 68.6496 16.6344C68.9494 16.8075 69.33 16.7055 69.5031 16.4057L71.0189 13.7802C71.192 13.4805 71.09 13.0998 70.7903 12.9267C70.6779 12.8618 70.554 12.8356 70.434 12.8439V12.844ZM26.9923 15.0717C26.8721 15.0761 26.7517 15.1147 26.6466 15.1909C26.3664 15.3941 26.3045 15.7833 26.5078 16.0635L30.7397 21.8973C30.943 22.1775 31.3324 22.2394 31.6126 22.0362C31.8928 21.8329 31.9548 21.4437 31.7514 21.1635L27.5192 15.3298C27.3922 15.1547 27.1926 15.0649 26.9923 15.0717V15.0717ZM74.0505 15.1034C73.8502 15.096 73.6506 15.1858 73.5233 15.3607L69.2834 21.1888C69.0797 21.4687 69.1412 21.858 69.4211 22.0617C69.701 22.2653 70.0904 22.204 70.294 21.9242L74.5338 16.0962C74.7374 15.8162 74.6758 15.4269 74.396 15.2232C74.2911 15.1469 74.1707 15.1077 74.0505 15.1034V15.1034ZM23.7997 17.7491C23.6402 17.7402 23.4775 17.7935 23.3488 17.9093C23.0915 18.1409 23.0709 18.5344 23.3025 18.7917L25.331 21.045C25.5626 21.3023 25.956 21.323 26.2133 21.0913C26.4706 20.8597 26.4913 20.466 26.2596 20.2087L24.2315 17.9556C24.1157 17.8269 23.9592 17.7575 23.7997 17.7491V17.7491ZM77.203 17.7536C77.0435 17.7625 76.887 17.8315 76.7712 17.9602L74.7428 20.213C74.5111 20.4702 74.5316 20.864 74.7889 21.0956C75.0462 21.3272 75.4397 21.3065 75.6713 21.0493L77.7 18.7965C77.9317 18.5392 77.9109 18.1455 77.6537 17.9139C77.525 17.7981 77.3626 17.7453 77.2031 17.7537L77.203 17.7536ZM20.7398 20.6884C20.5803 20.6973 20.4241 20.7663 20.3083 20.895C20.0767 21.1522 20.0974 21.5457 20.3546 21.7773L25.7111 26.5992C25.9683 26.8309 26.3618 26.8102 26.5934 26.5529C26.825 26.2957 26.8046 25.9022 26.5472 25.6706L21.1905 20.8486C21.0618 20.7329 20.8992 20.6801 20.7397 20.6885L20.7398 20.6884ZM80.2777 20.7095C80.1182 20.7006 79.9553 20.7537 79.8266 20.8694L74.4669 25.6876C74.2095 25.919 74.1883 26.3125 74.4197 26.5699C74.6511 26.8273 75.0449 26.8483 75.3023 26.6168L80.6622 21.7987C80.9197 21.5672 80.9406 21.1737 80.7092 20.9163C80.5934 20.7876 80.4372 20.7179 80.2777 20.7095H80.2777ZM18.1952 23.9603C17.9949 23.9529 17.7952 24.0432 17.668 24.2181C17.4645 24.4982 17.5262 24.8873 17.8064 25.0908L20.259 26.8728C20.539 27.0762 20.9281 27.0148 21.1316 26.7347C21.3351 26.4546 21.2735 26.0653 20.9936 25.8618L18.5409 24.0798C18.436 24.0035 18.3154 23.9646 18.1952 23.9603L18.1952 23.9603ZM82.8199 23.9831C82.6997 23.9875 82.5793 24.0259 82.4742 24.1022L80.0205 25.8826C79.7403 26.0859 79.6783 26.4753 79.8815 26.7555C80.0848 27.0357 80.474 27.0974 80.7542 26.8942L83.2082 25.1138C83.4884 24.9105 83.5501 24.5214 83.3468 24.2412C83.2198 24.0661 83.0202 23.9762 82.8199 23.9831V23.9831ZM15.8173 27.4505C15.6173 27.4638 15.4282 27.5746 15.32 27.7619C15.1469 28.0617 15.2489 28.4423 15.5487 28.6154L21.7901 32.219C22.0899 32.3921 22.4706 32.2901 22.6437 31.9903C22.8167 31.6905 22.7148 31.3099 22.415 31.1368L16.1735 27.5332C16.0611 27.4683 15.9372 27.4421 15.8173 27.4504V27.4505ZM85.1808 27.4505C85.0609 27.4415 84.937 27.4683 84.8246 27.5333L78.5831 31.1369C78.2834 31.3099 78.1814 31.6906 78.3545 31.9904C78.5275 32.2902 78.9082 32.3921 79.2079 32.219L85.4497 28.6155C85.7495 28.4424 85.8514 28.0617 85.6783 27.762C85.5701 27.5746 85.3807 27.4645 85.1808 27.4505V27.4505ZM14.0194 31.1705C13.7759 31.1646 13.5424 31.304 13.4366 31.541C13.2956 31.8572 13.4365 32.2252 13.7527 32.3662L16.5216 33.6013C16.8378 33.7423 17.2058 33.6014 17.3468 33.2853C17.4878 32.9691 17.3466 32.6011 17.0305 32.4601L14.2618 31.225C14.1828 31.1897 14.1005 31.1722 14.0194 31.1705V31.1705ZM86.9909 31.1962C86.9097 31.1977 86.8272 31.2155 86.7481 31.2507L83.9786 32.4836C83.6624 32.6245 83.521 32.9923 83.6618 33.3085C83.8026 33.6247 84.1707 33.7662 84.487 33.6254L87.2565 32.3922C87.5727 32.2515 87.7139 31.8835 87.5731 31.5673C87.4675 31.3301 87.2344 31.1914 86.9909 31.1962V31.1962ZM12.417 35.0587C12.1743 35.079 11.9568 35.2411 11.8763 35.488C11.7692 35.8171 11.9476 36.1684 12.2768 36.2757L19.1293 38.5085C19.4584 38.6157 19.8098 38.4371 19.917 38.1081C20.0242 37.7789 19.8458 37.4276 19.5166 37.3204L12.664 35.0875C12.5818 35.0606 12.4979 35.0519 12.417 35.0587V35.0587ZM88.5903 35.0854C88.5094 35.078 88.4258 35.0869 88.3435 35.1142L81.4893 37.3422C81.1601 37.4492 80.9813 37.8004 81.0883 38.1296C81.1954 38.4588 81.5466 38.6376 81.8758 38.5306L88.7297 36.3026C89.0589 36.1956 89.2379 35.8444 89.1309 35.5152C89.0506 35.2683 88.8329 35.1059 88.5903 35.0854V35.0854ZM11.4187 39.1401C11.1276 39.1372 10.8665 39.3392 10.8036 39.6355C10.7316 39.9741 10.9464 40.3046 11.2849 40.3766L14.2505 41.0068C14.5891 41.0788 14.9195 40.864 14.9915 40.5254C15.0635 40.1868 14.8488 39.8563 14.5102 39.7844L11.5449 39.1541C11.5026 39.1452 11.4603 39.1408 11.4187 39.1408V39.1401ZM89.5807 39.1461C89.5392 39.1464 89.4972 39.152 89.4549 39.1594L86.4893 39.7894C86.1507 39.8614 85.936 40.1916 86.008 40.5302C86.08 40.8688 86.4104 41.0837 86.749 41.0118L89.7143 40.3819C90.0529 40.3099 90.2678 39.9794 90.1959 39.6408C90.133 39.3445 89.8719 39.143 89.5808 39.1454L89.5807 39.1461ZM10.6631 43.2456C10.3733 43.2733 10.1348 43.5007 10.103 43.8019C10.0666 44.1461 10.3143 44.4526 10.6585 44.489L17.8257 45.2468C18.17 45.2831 18.4765 45.0352 18.5129 44.691C18.5492 44.3468 18.3013 44.0403 17.9571 44.0039L10.7898 43.2461C10.7468 43.2417 10.7045 43.2417 10.6631 43.2456V43.2456ZM90.3417 43.2995C90.3003 43.295 90.2577 43.295 90.2147 43.3L83.0466 44.0481C82.7023 44.084 82.4541 44.3901 82.49 44.7343C82.5259 45.0786 82.832 45.3269 83.1763 45.2909L90.3444 44.5429C90.6887 44.507 90.9369 44.2009 90.901 43.8566C90.8695 43.5553 90.6314 43.3276 90.3417 43.2994L90.3417 43.2995ZM10.5417 47.448C10.1956 47.448 9.91693 47.7267 9.91693 48.0729C9.91693 48.419 10.1956 48.6977 10.5417 48.6977H13.5734C13.9195 48.6977 14.1984 48.419 14.1984 48.0729C14.1984 47.7267 13.9195 47.448 13.5734 47.448H10.5417ZM87.4248 47.448C87.0786 47.448 86.7999 47.7267 86.7999 48.0729C86.7999 48.419 87.0786 48.6977 87.4248 48.6977H90.4564C90.8025 48.6977 91.0812 48.419 91.0812 48.0729C91.0812 47.7267 90.8025 47.448 90.4564 47.448H87.4248ZM17.9487 50.8542C17.9073 50.8498 17.865 50.8498 17.8219 50.8547L10.6536 51.6028C10.3093 51.6387 10.0612 51.9448 10.097 52.2891C10.133 52.6334 10.439 52.8817 10.7833 52.8457L17.9517 52.0976C18.296 52.0617 18.5441 51.7556 18.5083 51.4113C18.4768 51.1101 18.2384 50.8824 17.9487 50.8542H17.9487ZM83.0456 50.8985C82.7558 50.9262 82.5173 51.1536 82.4855 51.4548C82.4491 51.799 82.6968 52.1055 83.041 52.1419L90.2083 52.8997C90.5525 52.936 90.859 52.6881 90.8954 52.3439C90.9317 51.9997 90.6838 51.6931 90.3396 51.6568L83.1726 50.899C83.1296 50.8946 83.087 50.8946 83.0455 50.8985L83.0456 50.8985ZM14.3756 55.1196C14.334 55.1199 14.2918 55.124 14.2494 55.1329L11.2839 55.7629C10.9453 55.8349 10.7306 56.1653 10.8025 56.5039C10.8745 56.8425 11.205 57.0572 11.5436 56.9853L14.5092 56.3556C14.8478 56.2836 15.0624 55.9532 14.9905 55.6146C14.9275 55.3183 14.6667 55.1167 14.3757 55.1192L14.3756 55.1196ZM86.6217 55.1255C86.3306 55.1226 86.0698 55.3243 86.0068 55.6206C85.9348 55.9592 86.1493 56.2897 86.4879 56.3617L89.4535 56.9919C89.7921 57.0639 90.1225 56.8494 90.1945 56.5108C90.2665 56.1722 90.0517 55.8414 89.7131 55.7695L86.7479 55.1393C86.7056 55.1303 86.6633 55.1259 86.6217 55.1259L86.6217 55.1255ZM19.3693 57.5865C19.2884 57.5791 19.2049 57.588 19.1226 57.6153L12.2684 59.8433C11.9392 59.9503 11.7604 60.3015 11.8674 60.6307C11.9744 60.9599 12.3256 61.1387 12.6548 61.0317L19.5088 58.8037C19.838 58.6967 20.017 58.3455 19.91 58.0163C19.8297 57.7694 19.612 57.607 19.3693 57.5864V57.5865ZM81.622 57.6086C81.3793 57.629 81.1617 57.7911 81.0813 58.0379C80.9741 58.3671 81.1526 58.7184 81.4818 58.8257L88.3344 61.0585C88.6635 61.1657 89.0148 60.9871 89.1221 60.658C89.2294 60.3289 89.0508 59.9776 88.7216 59.8703L81.869 57.6375C81.7868 57.6106 81.7029 57.6019 81.622 57.6087V57.6086ZM16.7538 62.4664C16.6726 62.4679 16.5904 62.4854 16.5114 62.5206L13.7416 63.7538C13.4254 63.8945 13.2842 64.2625 13.425 64.5787C13.5659 64.895 13.9337 65.0361 14.2499 64.8953L17.0197 63.6624C17.3359 63.5217 17.4771 63.1537 17.3363 62.8375C17.2308 62.6003 16.9973 62.4616 16.7538 62.4664V62.4664ZM84.2343 62.4902C83.9908 62.4842 83.7573 62.6236 83.6515 62.8607C83.5105 63.1769 83.6515 63.5449 83.9676 63.6859L86.7363 64.921C87.0524 65.062 87.4205 64.921 87.5615 64.6049C87.7025 64.2888 87.5615 63.9208 87.2454 63.7797L84.4767 62.5447C84.3978 62.5093 84.3155 62.4918 84.2343 62.4902V62.4902ZM22.1464 63.8442C22.0265 63.8353 21.9026 63.862 21.7901 63.927L15.5487 67.5306C15.2489 67.7037 15.1469 68.0843 15.32 68.3841C15.4931 68.6839 15.8737 68.7859 16.1735 68.6128L22.415 65.0095C22.7148 64.8364 22.8167 64.4555 22.6437 64.1557C22.5354 63.9683 22.3463 63.8582 22.1464 63.8442V63.8442ZM78.852 63.8442C78.652 63.8576 78.4626 63.9683 78.3545 64.1557C78.1814 64.4554 78.2834 64.8363 78.5831 65.0094L84.8246 68.6127C85.1244 68.7858 85.5053 68.6838 85.6783 68.384C85.8514 68.0843 85.7495 67.7036 85.4497 67.5306L79.2079 63.927C79.0956 63.8621 78.9719 63.8358 78.852 63.8441V63.8442ZM20.5896 69.1324C20.4693 69.1368 20.349 69.1756 20.2439 69.2519L17.7901 71.0322C17.51 71.2355 17.448 71.6247 17.6512 71.9049C17.8545 72.1851 18.2437 72.247 18.5239 72.0437L20.9778 70.2633C21.2581 70.0601 21.32 69.6709 21.1168 69.3907C20.9897 69.2156 20.7899 69.1255 20.5896 69.1323V69.1324ZM80.3937 69.1535C80.1934 69.146 79.9937 69.2363 79.8665 69.4113C79.663 69.6913 79.7247 70.0807 80.0048 70.2842L82.4575 72.0661C82.7375 72.2696 83.1266 72.2079 83.3301 71.9278C83.5336 71.6477 83.472 71.2586 83.1921 71.0551L80.7394 69.2732C80.6345 69.1969 80.5139 69.1577 80.3937 69.1534L80.3937 69.1535ZM26.1469 69.3692C25.9874 69.3603 25.8247 69.4134 25.696 69.5291L20.3361 74.3473C20.0787 74.5787 20.0577 74.9722 20.2892 75.2296C20.5206 75.4871 20.9141 75.508 21.1716 75.2765L26.5315 70.4584C26.7889 70.227 26.8098 69.8335 26.5784 69.576C26.4628 69.4473 26.3064 69.3777 26.1469 69.3692ZM74.8363 69.3864C74.6768 69.3953 74.5204 69.4644 74.4046 69.593C74.173 69.8503 74.1937 70.2437 74.451 70.4753L79.8074 75.2973C80.0646 75.5289 80.4584 75.5082 80.69 75.2509C80.9216 74.9937 80.9009 74.6002 80.6437 74.3686L75.2869 69.5467C75.1582 69.4309 74.9958 69.3781 74.8363 69.3865V69.3864ZM31.2318 73.9638C31.0315 73.9563 30.8316 74.046 30.7043 74.221L26.4646 80.0491C26.2609 80.329 26.3222 80.7184 26.602 80.922C26.882 81.1257 27.2713 81.0644 27.4749 80.7844L31.7147 74.9563C31.9183 74.6764 31.8571 74.2871 31.5772 74.0834C31.4723 74.0071 31.3519 73.9679 31.2318 73.9638ZM69.7315 73.9899C69.6113 73.9943 69.4909 74.0328 69.3858 74.1091C69.1056 74.3124 69.0437 74.7015 69.2468 74.9817L73.4787 80.8155C73.682 81.0957 74.0712 81.1576 74.3514 80.9544C74.6316 80.7512 74.6936 80.362 74.4904 80.0818L70.2585 74.248C70.1314 74.0729 69.9318 73.9831 69.7315 73.99V73.9899ZM25.7586 74.89C25.5991 74.8989 25.4427 74.968 25.3269 75.0966L23.2984 77.3494C23.0668 77.6067 23.0873 78.0004 23.3446 78.232C23.6018 78.4637 23.9953 78.4429 24.2269 78.1856L26.2556 75.9328C26.4873 75.6755 26.4665 75.2818 26.2093 75.0502C26.0806 74.9344 25.9182 74.8816 25.7587 74.89L25.7586 74.89ZM75.2357 74.893C75.0762 74.8841 74.9138 74.9374 74.7851 75.0532C74.5278 75.2848 74.5071 75.6783 74.7387 75.9355L76.7668 78.1889C76.9984 78.4462 77.3919 78.4669 77.6492 78.2352C77.9065 78.0036 77.9272 77.6099 77.6955 77.3526L75.6673 75.0995C75.5515 74.9708 75.3951 74.9013 75.2356 74.8929L75.2357 74.893ZM37.1524 77.3923C36.9089 77.3864 36.6756 77.5257 36.5699 77.7628L33.6335 84.3446C33.4924 84.6608 33.6334 85.0288 33.9495 85.1698C34.2656 85.3108 34.6337 85.1699 34.7747 84.8538L37.7111 78.272C37.8521 77.9558 37.7112 77.5878 37.395 77.4468C37.3161 77.4114 37.2335 77.3939 37.1524 77.3923ZM63.8061 77.4104C63.7249 77.4119 63.6425 77.4294 63.5634 77.4646C63.2473 77.6052 63.1057 77.9729 63.2463 78.2892L66.1735 84.8751C66.3141 85.1912 66.6821 85.3328 66.9984 85.1922C67.3146 85.0516 67.4562 84.6839 67.3156 84.3676L64.3883 77.7817C64.2829 77.5446 64.0496 77.4057 63.8061 77.4104V77.4104ZM31.9925 79.4272C31.7926 79.4406 31.6034 79.5514 31.4952 79.7387L29.9794 82.3642C29.8063 82.664 29.9083 83.0446 30.2081 83.2177C30.5079 83.3908 30.8885 83.2888 31.0616 82.989L32.5774 80.3635C32.7505 80.0638 32.6486 79.6831 32.3488 79.51C32.2364 79.4452 32.1125 79.4189 31.9925 79.4272V79.4272ZM69.0056 79.4272C68.8856 79.4183 68.7621 79.4452 68.6496 79.5101C68.3499 79.6832 68.2479 80.0638 68.421 80.3636L69.9367 82.9891C70.1098 83.2889 70.4905 83.3908 70.7903 83.2178C71.09 83.0447 71.192 82.664 71.0189 82.3643L69.5031 79.7388C69.3949 79.5514 69.2055 79.4413 69.0056 79.4273V79.4272ZM43.6894 79.5214C43.3983 79.5184 43.1375 79.7202 43.0745 80.0165L41.5768 87.0664C41.5048 87.405 41.7196 87.7355 42.0582 87.8075C42.3968 87.8795 42.7273 87.6647 42.7992 87.3261L44.2969 80.2762C44.3689 79.9376 44.1541 79.6071 43.8156 79.5351C43.7733 79.5262 43.731 79.5218 43.6894 79.5218L43.6894 79.5214ZM57.2866 79.5258C57.245 79.5262 57.203 79.5303 57.1607 79.5392C56.8221 79.6109 56.6071 79.941 56.6788 80.2797L58.1714 87.3307C58.2431 87.6694 58.5735 87.8843 58.9122 87.8126C59.2509 87.7409 59.4658 87.4105 59.3941 87.0718L57.9012 80.0213C57.8384 79.725 57.5777 79.5234 57.2867 79.5256L57.2866 79.5258ZM50.499 80.2369C50.1529 80.2369 49.8742 80.5156 49.8742 80.8618V88.0689C49.8742 88.4151 50.1529 88.6937 50.499 88.6937C50.8452 88.6937 51.1239 88.4151 51.1239 88.0689V80.8618C51.1239 80.5156 50.8452 80.2369 50.499 80.2369ZM39.0295 82.5658C38.7868 82.5864 38.5691 82.7487 38.4888 82.9956L37.5517 85.8789C37.4447 86.2081 37.6236 86.5593 37.9527 86.6664C38.2819 86.7734 38.6331 86.5942 38.7402 86.2651L39.6773 83.3821C39.7843 83.0529 39.6054 82.7017 39.2763 82.5946C39.194 82.5679 39.1104 82.559 39.0295 82.5659V82.5658ZM61.9637 82.5673C61.8828 82.5599 61.7993 82.5688 61.717 82.5959C61.3878 82.703 61.2087 83.0541 61.3157 83.3834L62.2526 86.2667C62.3596 86.5959 62.7108 86.7746 63.04 86.6676C63.3692 86.5606 63.5482 86.2097 63.4413 85.8805L62.5042 82.9972C62.4239 82.7503 62.2064 82.588 61.9637 82.5673V82.5673ZM46.577 84.1731C46.2872 84.201 46.0485 84.4285 46.0169 84.7298L45.7 87.7449C45.6638 88.0892 45.9118 88.3953 46.2561 88.4315C46.6004 88.4677 46.9067 88.2197 46.9429 87.8754L47.2598 84.8605C47.296 84.5163 47.048 84.2099 46.7038 84.1737C46.6607 84.1692 46.6184 84.1692 46.577 84.1732L46.577 84.1731ZM54.396 84.1761C54.3546 84.1717 54.312 84.1717 54.269 84.1766C53.9247 84.2126 53.6764 84.5187 53.7123 84.8629L54.0273 87.8784C54.0632 88.2226 54.3693 88.4707 54.7136 88.4347C55.0579 88.3988 55.3062 88.0927 55.2703 87.7484L54.9555 84.7332C54.9241 84.432 54.6857 84.2042 54.3959 84.1761L54.396 84.1761Z" fill="#F4F2F3"/>
<g opacity="0.409" filter="url(#filter1_f)">
<path d="M79.7863 23.0802L45.6007 42.9421L23.9862 76.9695L55.6065 53.5487L79.7863 23.0802Z" fill="black"/>
</g>
<path d="M55.3993 53.2035L45.6007 42.942L80.3602 19.5593L55.3993 53.2035Z" fill="#FF5150"/>
<path d="M55.3993 53.2035L45.6007 42.942L20.6398 76.5862L55.3993 53.2035Z" fill="#F1F1F1"/>
<path opacity="0.243" d="M20.6398 76.5862L55.3993 53.2035L80.3602 19.5593L20.6398 76.5862Z" fill="black"/>
<defs>
<filter id="filter0_f" x="1.60825" y="4.64887" width="97.7835" height="94.4629" filterUnits="userSpaceOnUse" color-interpolation-filters="sRGB">
<feFlood flood-opacity="0" result="BackgroundImageFix"/>
<feBlend mode="normal" in="SourceGraphic" in2="BackgroundImageFix" result="shape"/>
<feGaussianBlur stdDeviation="2.04879" result="effect1_foregroundBlur"/>
</filter>
<filter id="filter1_f" x="21.143" y="20.237" width="61.4864" height="59.5757" filterUnits="userSpaceOnUse" color-interpolation-filters="sRGB">
<feFlood flood-opacity="0" result="BackgroundImageFix"/>
<feBlend mode="normal" in="SourceGraphic" in2="BackgroundImageFix" result="shape"/>
<feGaussianBlur stdDeviation="1.4216" result="effect1_foregroundBlur"/>
</filter>
<linearGradient id="paint0_linear" x1="50.5" y1="94.5728" x2="50.5" y2="1.57275" gradientUnits="userSpaceOnUse">
<stop stop-color="#BDBDBD"/>
<stop offset="1" stop-color="white"/>
</linearGradient>
<radialGradient id="paint1_radial" cx="0" cy="0" r="1" gradientUnits="userSpaceOnUse" gradientTransform="translate(50.6945 41.8238) scale(46.5002)">
<stop stop-color="#06C2E7"/>
<stop offset="0.25" stop-color="#0DB8EC"/>
<stop offset="0.5" stop-color="#12AEF1"/>
<stop offset="0.75" stop-color="#1F86F9"/>
<stop offset="1" stop-color="#107DDD"/>
</radialGradient>
</defs>
</svg>
