<svg width="100" height="100" viewBox="0 0 100 100" fill="none" xmlns="http://www.w3.org/2000/svg">
<rect width="100" height="100" fill="#F0C113"/>
<mask id="mask0" mask-type="alpha" maskUnits="userSpaceOnUse" x="19" y="23" width="61" height="57">
<path d="M32.3091 24.8619L49.5 23L66.6909 24.8619L80 43.1656L49.5 79.5521L19 43.1656L32.3091 24.8619Z" fill="white"/>
</mask>
<g mask="url(#mask0)">
<path d="M32.3091 24.8619L49.5 23L66.6909 24.8619L80 43.1656L49.5 79.5521L19 43.1656L32.3091 24.8619Z" fill="#FDB300"/>
<path fill-rule="evenodd" clip-rule="evenodd" d="M31.354 43.1655L49.5 79.552L19 43.1655L31.354 43.1655Z" fill="#EA6C00"/>
<path fill-rule="evenodd" clip-rule="evenodd" d="M67.6459 43.1655L49.4999 79.552L79.9999 43.1655L67.6459 43.1655Z" fill="#EA6C00"/>
<path fill-rule="evenodd" clip-rule="evenodd" d="M31.354 43.1655H67.6459L49.5 79.552L31.354 43.1655Z" fill="#FDB300"/>
<path fill-rule="evenodd" clip-rule="evenodd" d="M49.5 23L32.3091 24.8619L31.354 43.1656L49.5 23Z" fill="#FDD231"/>
<path fill-rule="evenodd" clip-rule="evenodd" d="M49.5 23L66.6909 24.8619L67.6459 43.1656L49.5 23Z" fill="#FDD231"/>
<path fill-rule="evenodd" clip-rule="evenodd" d="M79.9999 43.1656L66.6908 24.8619L67.6459 43.1656H79.9999Z" fill="#FDA700"/>
<path fill-rule="evenodd" clip-rule="evenodd" d="M19 43.1656L32.3091 24.8619L31.354 43.1656H19Z" fill="#FDA700"/>
<path fill-rule="evenodd" clip-rule="evenodd" d="M49.5 23L31.354 43.1656H67.6459L49.5 23Z" fill="#FEEEB7"/>
</g>
</svg>
