<svg width="100" height="100" viewBox="0 0 100 100" fill="none" xmlns="http://www.w3.org/2000/svg">
<mask id="mask0" mask-type="alpha" maskUnits="userSpaceOnUse" x="1" y="7" width="98" height="90">
<path d="M22.1808 9.96317L49.5393 7L76.8979 9.96317L98.0787 39.0926L49.5393 97L1 39.0926L22.1808 9.96317Z" fill="white"/>
</mask>
<g mask="url(#mask0)">
<path d="M22.1808 9.96317L49.5393 7L76.8979 9.96317L98.0787 39.0926L49.5393 97L1 39.0926L22.1808 9.96317Z" fill="#FDB300"/>
<path fill-rule="evenodd" clip-rule="evenodd" d="M20.6609 39.0925L49.5393 96.9999L1 39.0925L20.6609 39.0925Z" fill="#EA6C00"/>
<path fill-rule="evenodd" clip-rule="evenodd" d="M78.4177 39.0925L49.5392 96.9998L98.0786 39.0925L78.4177 39.0925Z" fill="#EA6C00"/>
<path fill-rule="evenodd" clip-rule="evenodd" d="M20.6608 39.0925H78.4177L49.5393 96.9998L20.6608 39.0925Z" fill="#FDB300"/>
<path fill-rule="evenodd" clip-rule="evenodd" d="M49.5393 7L22.1807 9.96317L20.6608 39.0926L49.5393 7Z" fill="#FDD231"/>
<path fill-rule="evenodd" clip-rule="evenodd" d="M49.5393 7L76.8978 9.96317L78.4177 39.0926L49.5393 7Z" fill="#FDD231"/>
<path fill-rule="evenodd" clip-rule="evenodd" d="M98.0786 39.0927L76.8977 9.9632L78.4177 39.0927H98.0786Z" fill="#FDA700"/>
<path fill-rule="evenodd" clip-rule="evenodd" d="M1 39.0927L22.1808 9.9632L20.6609 39.0927H1Z" fill="#FDA700"/>
<path fill-rule="evenodd" clip-rule="evenodd" d="M49.5393 7L20.6608 39.0926H78.4177L49.5393 7Z" fill="#FEEEB7"/>
</g>
</svg>
