<svg width="100" height="100" viewBox="0 0 100 100" fill="none" xmlns="http://www.w3.org/2000/svg">
<mask id="mask0" mask-type="alpha" maskUnits="userSpaceOnUse" x="0" y="3" width="100" height="94">
<path d="M21.8182 6.38541L50 3.33307L78.1818 6.38541L100 36.3915L50 96.0414L0 36.3915L21.8182 6.38541Z" fill="white"/>
</mask>
<g mask="url(#mask0)">
<path d="M21.8182 6.38541L50 3.33307L78.1818 6.38541L100 36.3915L50 96.0414L0 36.3915L21.8182 6.38541Z" fill="#FDB300"/>
<path fill-rule="evenodd" clip-rule="evenodd" d="M20.2525 36.3913L50 96.0413L0 36.3913L20.2525 36.3913Z" fill="#EA6C00"/>
<path fill-rule="evenodd" clip-rule="evenodd" d="M79.7475 36.3913L50 96.0413L100 36.3913L79.7475 36.3913Z" fill="#EA6C00"/>
<path fill-rule="evenodd" clip-rule="evenodd" d="M20.2526 36.3913H79.7475L50 96.0413L20.2526 36.3913Z" fill="#FDB300"/>
<path fill-rule="evenodd" clip-rule="evenodd" d="M50.0001 3.33307L21.8182 6.38541L20.2526 36.3915L50.0001 3.33307Z" fill="#FDD231"/>
<path fill-rule="evenodd" clip-rule="evenodd" d="M50 3.33307L78.1818 6.38541L79.7474 36.3915L50 3.33307Z" fill="#FDD231"/>
<path fill-rule="evenodd" clip-rule="evenodd" d="M100 36.3914L78.1818 6.38541L79.7475 36.3914H100Z" fill="#FDA700"/>
<path fill-rule="evenodd" clip-rule="evenodd" d="M0 36.3914L21.8182 6.38541L20.2525 36.3914H0Z" fill="#FDA700"/>
<path fill-rule="evenodd" clip-rule="evenodd" d="M50 3.33307L20.2526 36.3915H79.7475L50 3.33307Z" fill="#FEEEB7"/>
</g>
</svg>
