<svg width="100" height="100" viewBox="0 0 100 100" fill="none" xmlns="http://www.w3.org/2000/svg">
<rect width="100" height="100" fill="white"/>
<path fill-rule="evenodd" clip-rule="evenodd" d="M31.86 58.5621C31.86 62.1075 28.9968 64.9729 25.4543 64.9729C21.9117 64.9729 19.0485 62.1075 19.0485 58.5621C19.0485 55.0167 21.9117 52.1513 25.4543 52.1513H31.86V58.5621ZM35.0628 58.5621C35.0628 55.0167 37.926 52.1513 41.4686 52.1513C45.0111 52.1513 47.8743 55.0167 47.8743 58.5621V74.5892C47.8743 78.1346 45.0111 81 41.4686 81C37.926 81 35.0628 78.1346 35.0628 74.5892V58.5621Z" fill="#E01E5A"/>
<path fill-rule="evenodd" clip-rule="evenodd" d="M41.4686 32.8217C37.926 32.8217 35.0628 29.9562 35.0628 26.4108C35.0628 22.8654 37.926 20 41.4686 20C45.0111 20 47.8743 22.8654 47.8743 26.4108V32.8217H41.4686ZM41.4686 36.0756C45.0111 36.0756 47.8743 38.9411 47.8743 42.4865C47.8743 46.0318 45.0111 48.8973 41.4686 48.8973H25.4057C21.8632 48.8973 19 46.0318 19 42.4865C19 38.9411 21.8632 36.0756 25.4057 36.0756H41.4686Z" fill="#36C5F0"/>
<path fill-rule="evenodd" clip-rule="evenodd" d="M67.14 42.4865C67.14 38.9411 70.0032 36.0756 73.5457 36.0756C77.0883 36.0756 79.9514 38.9411 79.9514 42.4865C79.9514 46.0318 77.0883 48.8973 73.5457 48.8973H67.14V42.4865ZM63.9371 42.4865C63.9371 46.0318 61.074 48.8973 57.5314 48.8973C53.9888 48.8973 51.1257 46.0318 51.1257 42.4865V26.4108C51.1257 22.8654 53.9888 20 57.5314 20C61.074 20 63.9371 22.8654 63.9371 26.4108V42.4865V42.4865Z" fill="#2EB67D"/>
<path fill-rule="evenodd" clip-rule="evenodd" d="M57.5314 68.1783C61.074 68.1783 63.9371 71.0438 63.9371 74.5892C63.9371 78.1346 61.074 81 57.5314 81C53.9888 81 51.1257 78.1346 51.1257 74.5892V68.1783H57.5314ZM57.5314 64.9729C53.9888 64.9729 51.1257 62.1075 51.1257 58.5621C51.1257 55.0167 53.9888 52.1513 57.5314 52.1513H73.5942C77.1368 52.1513 80 55.0167 80 58.5621C80 62.1075 77.1368 64.9729 73.5942 64.9729H57.5314Z" fill="#ECB22E"/>
</svg>
