<svg width="100" height="100" viewBox="0 0 100 100" fill="none" xmlns="http://www.w3.org/2000/svg">
<path fill-rule="evenodd" clip-rule="evenodd" d="M21.4495 62.32C21.4495 67.9577 16.8966 72.5143 11.2633 72.5143C5.63005 72.5143 1.07715 67.9577 1.07715 62.32C1.07715 56.6823 5.63005 52.1257 11.2633 52.1257H21.4495V62.32ZM26.5425 62.32C26.5425 56.6823 31.0954 52.1257 36.7287 52.1257C42.362 52.1257 46.9149 56.6823 46.9149 62.32V87.8057C46.9149 93.4434 42.362 97.9999 36.7287 97.9999C31.0954 97.9999 26.5425 93.4434 26.5425 87.8057V62.32Z" fill="#E01E5A"/>
<path fill-rule="evenodd" clip-rule="evenodd" d="M36.7287 21.3885C31.0955 21.3885 26.5426 16.832 26.5426 11.1943C26.5426 5.55653 31.0955 1 36.7287 1C42.362 1 46.9149 5.55653 46.9149 11.1943V21.3885H36.7287ZM36.7287 26.5629C42.362 26.5629 46.9149 31.1194 46.9149 36.7572C46.9149 42.3949 42.362 46.9514 36.7287 46.9514H11.1862C5.5529 46.9514 1 42.3949 1 36.7572C1 31.1194 5.5529 26.5629 11.1862 26.5629H36.7287Z" fill="#36C5F0"/>
<path fill-rule="evenodd" clip-rule="evenodd" d="M77.5504 36.7572C77.5504 31.1194 82.1033 26.5629 87.7366 26.5629C93.3698 26.5629 97.9227 31.1194 97.9227 36.7572C97.9227 42.3949 93.3698 46.9514 87.7366 46.9514H77.5504V36.7572ZM72.4573 36.7572C72.4573 42.3949 67.9044 46.9514 62.2712 46.9514C56.6379 46.9514 52.085 42.3949 52.085 36.7572V11.1943C52.085 5.55653 56.6379 1 62.2712 1C67.9044 1 72.4573 5.55653 72.4573 11.1943V36.7572Z" fill="#2EB67D"/>
<path fill-rule="evenodd" clip-rule="evenodd" d="M62.2712 77.6114C67.9044 77.6114 72.4573 82.1679 72.4573 87.8057C72.4573 93.4434 67.9044 97.9999 62.2712 97.9999C56.6379 97.9999 52.085 93.4434 52.085 87.8057V77.6114H62.2712ZM62.2712 72.5143C56.6379 72.5143 52.085 67.9577 52.085 62.32C52.085 56.6823 56.6379 52.1257 62.2712 52.1257H87.8137C93.447 52.1257 97.9999 56.6823 97.9999 62.32C97.9999 67.9577 93.447 72.5143 87.8137 72.5143H62.2712Z" fill="#ECB22E"/>
</svg>
