<svg width="100" height="100" viewBox="0 0 100 100" fill="none" xmlns="http://www.w3.org/2000/svg">
<path d="M49.9997 1C22.9385 1 1 22.9384 1 50.0003C1 77.0633 22.9385 99 49.9997 99C77.0639 99 99 77.0633 99 50.0003C99 22.9402 77.0639 1.00234 49.9991 1.00234L49.9997 1V1ZM72.4707 71.6725C71.593 73.1119 69.7089 73.5683 68.2695 72.6848C56.7649 65.6573 42.282 64.0657 25.2257 67.9627C23.5821 68.3372 21.9438 67.3074 21.5693 65.6632C21.1931 64.0189 22.2188 62.3806 23.8665 62.0061C42.5318 57.7399 58.5425 59.5778 71.4584 67.4712C72.8978 68.3548 73.3542 70.2331 72.4707 71.6725V71.6725ZM78.4681 58.3285C77.3623 60.1278 75.0101 60.6954 73.2138 59.5895C60.0427 51.4918 39.9655 49.1472 24.3867 53.8762C22.3662 54.4865 20.2323 53.3478 19.6191 51.3309C19.0106 49.3104 20.1498 47.1805 22.1667 46.5661C39.962 41.1665 62.0848 43.7821 77.2101 53.0769C79.0064 54.1828 79.574 56.5351 78.4681 58.3291V58.3285ZM78.983 44.4351C63.1907 35.0548 37.1353 34.1923 22.0573 38.7686C19.6361 39.503 17.0756 38.1361 16.3418 35.7148C15.6081 33.2924 16.9738 30.7336 19.3968 29.9975C36.7052 24.743 65.4785 25.7582 83.6605 36.5522C85.843 37.8447 86.5568 40.6575 85.2637 42.8324C83.9765 45.0103 81.1562 45.7282 78.9854 44.4351H78.983Z" fill="#1ED760"/>
</svg>
