<svg width="100" height="100" viewBox="0 0 100 100" fill="none" xmlns="http://www.w3.org/2000/svg">
<path d="M95.1978 98.6397H4.80276C2.71942 98.6397 1.00889 96.9348 1.00889 94.8583V4.78144C1.00889 2.70492 2.71942 1 4.80276 1H95.1978C97.2811 1 98.9917 2.70492 98.9917 4.78144V94.8801C98.9697 96.9566 97.2811 98.6397 95.1978 98.6397V98.6397Z" fill="#4D4D4E"/>
<path d="M23.5964 30.4865L74.8685 14.2678C74.8685 14.2678 78.5089 12.3662 77.6317 15.8853L77.7633 31.5138C77.7633 31.5138 78.3992 33.8089 75.2413 34.3772L54.4079 40.869L23.5964 30.4865Z" fill="#F89820"/>
<path d="M23.5964 30.4864C23.5964 30.4864 21.5789 30.9673 22.171 34.399L22.0613 49.4591C22.0613 49.4591 21.8859 51.3608 25.5043 52.1258L76.3159 68.4319C76.3159 68.4319 78.0264 69.1095 77.829 67.0111L77.851 50.2242C77.851 50.2242 78.3334 48.4974 75.1755 47.3608L54.4079 40.8689L23.5964 30.4864Z" fill="#F89820"/>
<path d="M45.9868 58.6833L24.3639 65.2626C24.3639 65.2626 21.7543 65.35 22.0613 70.2243C22.3683 75.0987 22.0394 84.9129 22.0394 84.9129C22.0394 84.9129 22.2587 86.7271 24.7587 85.6779L76.0308 69.3719C76.0308 69.3719 77.8509 68.9128 76.3159 68.4101C74.7808 67.9292 45.9868 58.6833 45.9868 58.6833V58.6833Z" fill="url(#paint0_linear)"/>
<defs>
<linearGradient id="paint0_linear" x1="25.0389" y1="75.9813" x2="76.8673" y2="57.9902" gradientUnits="userSpaceOnUse">
<stop offset="0.233" stop-color="#F89822"/>
<stop offset="1" stop-color="#C27818"/>
</linearGradient>
</defs>
</svg>
