<svg width="100" height="100" viewBox="0 0 100 100" fill="none" xmlns="http://www.w3.org/2000/svg">
<path fill-rule="evenodd" clip-rule="evenodd" d="M47.3412 3.69717C49.2013 2.25825 51.7987 2.25825 53.6588 3.69717L87.9963 30.2601C90.6289 32.2967 90.6748 36.2555 88.0901 38.3525L73.5246 50.1697L87.4001 61.2701C89.9567 63.3154 89.9881 67.1934 87.465 69.2798L53.7721 97.1413C51.8769 98.7084 49.1393 98.7212 47.2296 97.1718L12.918 69.3341C10.3288 67.2335 10.3802 63.266 13.023 61.2332L27.4414 50.1421L12.9099 38.3525C10.3253 36.2555 10.3711 32.2967 13.0037 30.2601L47.3412 3.69717ZM57.6477 63.051L70.0078 53.023L82.5428 63.051H57.6477ZM49.7625 67.3119C48.864 67.1826 47.9925 66.8157 47.2474 66.2112L30.9735 53.0078L15.7209 64.7406C15.3434 65.031 15.3361 65.5977 15.706 65.8978L50.0175 93.7355C50.2903 93.9568 50.6814 93.955 50.9522 93.7311L82.7026 67.476H49.7625V67.3119ZM50.9513 7.19716C50.6855 6.9916 50.3145 6.9916 50.0487 7.19716L15.7113 33.7601C15.3352 34.0511 15.3286 34.6166 15.6979 34.9162L50.0353 62.7749C50.3062 62.9946 50.6938 62.9946 50.9647 62.7749L85.3021 34.9162C85.6714 34.6166 85.6648 34.0511 85.2888 33.7601L50.9513 7.19716Z" fill="white"/>
</svg>
