<svg width="84" height="100" viewBox="0 0 84 100" fill="none" xmlns="http://www.w3.org/2000/svg">
<path d="M78.3718 13.7457H6.0639V92.1389H78.3718V13.7457Z" fill="white"/>
<path fill-rule="evenodd" clip-rule="evenodd" d="M83.888 56.5147C83.888 56.6471 83.888 56.7796 83.888 56.9085V57.1197C83.888 57.2449 83.888 57.3667 83.888 57.4776V57.5063C83.888 57.5564 83.888 57.6065 83.888 57.6566V57.6924V58.0325V58.0718C83.888 58.1148 83.888 58.1577 83.888 58.2007V58.2759C83.888 58.3296 83.888 58.3833 83.888 58.4334C83.888 58.4871 83.888 58.5372 83.888 58.5909V58.6338C83.888 58.6732 83.888 58.709 83.888 58.7484V58.7913C83.888 58.8414 83.888 58.8916 83.888 58.9381V59.0849V59.1099C83.888 59.271 83.8557 59.4321 83.8343 59.6039L81.6614 87.1668H81.6435C81.5816 88.171 81.4367 89.1683 81.2104 90.1486C80.6413 92.5291 80.0256 94.0862 77.7454 96.1874C74.9246 98.7898 70.7508 99.6704 68.2952 99.8529C66.1797 100.014 50.7874 99.9997 50.7874 99.9997H33.1829C33.1829 99.9997 17.7907 99.9997 15.6787 99.8529C13.2267 99.6704 9.04928 98.779 6.22856 96.1874C3.95194 94.0897 3.33624 92.5291 2.76708 90.1486C2.4788 88.8504 2.32171 87.5264 2.29816 86.1967L0.0143714 59.1779V59.0169C0.0143714 58.9667 0.0143714 58.913 0.0143714 58.8629V58.5515C0.0161313 58.5372 0.0161313 58.5228 0.0143714 58.5085V58.351C0.0143714 58.2973 0.0143714 58.2437 0.0143714 58.19V57.9823C0.0143714 57.8678 0.0143714 57.7497 0.0143714 57.6244V57.5958C0.0143714 57.5421 0.0143714 57.4884 0.0143714 57.4347V57.4168C0.0143714 57.2951 0.0143714 57.1698 0.0143714 57.0409C0.0143714 56.8476 0.0143714 56.6543 0.0143714 56.4539C0.0143714 56.2534 0.0143714 56.0529 0.0143714 55.8489C-0.0071062 53.7011 -0.00710511 51.4245 0.0322705 50.1788C0.0895441 48.3031 0.13608 44.6555 0.218411 42.071C0.300742 39.4866 0.605005 28.422 0.701654 25.2755C0.798303 22.1291 1.03098 14.4902 1.21354 11.6265C1.49117 8.62587 2.89868 5.84283 5.1511 3.84091C7.58165 1.75042 11.5657 0.415236 14.7623 0.214778C17.83 0.0250594 22.2437 0 24.5096 0H59.314C61.5799 0 65.99 0.0250594 69.0577 0.214778C72.2578 0.415236 76.2419 1.75042 78.6689 3.84091C80.9207 5.84327 82.3281 8.62607 82.6065 11.6265C82.789 14.4902 83.0181 22.1291 83.1183 25.2755C83.2186 28.422 83.5157 39.4866 83.598 42.071C83.6803 44.6555 83.7305 48.3031 83.7877 50.1788C83.8414 51.5176 83.913 54.1736 83.888 56.5147ZM18.6462 65.0521C19.8704 65.1523 22.8629 65.478 24.7673 66.3944C26.575 67.2642 27.5308 68.4312 27.8279 69.2939C28.286 70.6147 28.3039 76.9972 28.3648 78.3968C28.4113 79.4492 28.4793 83.0503 28.5259 84.006C28.6619 86.7695 28.6404 87.2026 29.8969 88.008C31.2965 88.9065 33.412 88.9495 34.0313 88.9745C34.6506 88.9996 40.4209 88.9745 40.4209 88.9745H43.5065C43.5065 88.9745 49.3914 89.0031 50.433 88.9459C51.4747 88.8886 53.2537 88.4913 53.9768 88.0331C54.5846 87.6982 55.0378 87.1396 55.2404 86.476C55.3407 85.9712 55.5375 77.8133 55.6163 75.7121C55.7237 72.8162 55.8525 70.2067 55.8848 70.0205C56.036 69.2603 56.42 68.566 56.9837 68.0339C57.9399 67.1342 59.088 66.4634 60.3414 66.0722C61.9984 65.593 63.6965 65.2695 65.4136 65.1057C66.5305 65.0055 68.5064 64.8659 69.6841 64.8659C70.7258 64.8659 73.2243 64.15 74.5094 63.1012C74.2624 50.8912 73.6933 24.3126 73.5751 19.6269C73.5322 17.8694 71.8533 16.663 70.1137 16.663L13.7887 16.6344C12.0561 16.6344 10.3415 17.762 10.2986 19.6019C10.1912 24.1838 9.6256 50.8983 9.37145 63.1083C10.6601 64.1607 13.1515 64.8981 14.1896 64.8981C14.6621 64.891 17.0246 64.9196 18.6462 65.0521Z" fill="#2274E5"/>
<path fill-rule="evenodd" clip-rule="evenodd" d="M53.9769 88.033C53.2609 88.4912 51.4711 88.8921 50.4331 88.9458C49.395 88.9995 43.5065 88.9745 43.5065 88.9745H40.4209C40.4209 88.9745 34.6506 88.9995 34.0313 88.9745C33.4121 88.9494 31.2965 88.9065 29.8969 88.008C28.6405 87.2026 28.6619 86.7695 28.5259 84.006C28.4794 83.0646 28.4114 79.4492 28.3648 78.3968C28.329 77.5305 28.3076 74.7635 28.1859 72.4618H55.7488C55.7058 73.4032 55.6593 74.5344 55.6163 75.7121C55.5376 77.8133 55.3407 85.9712 55.2405 86.4759C55.0379 87.1396 54.5846 87.6982 53.9769 88.033V88.033Z" fill="#BEC2C8"/>
<path d="M42.0102 57.6888C41.7453 57.6888 41.1547 57.2235 40.8612 56.9407C40.5677 56.6579 37.4785 53.737 34.4716 50.9735C30.7452 47.5944 27.767 44.7987 27.3732 44.4121C26.9795 44.0255 27.1048 43.8859 27.1907 43.8C27.4878 43.485 30.5197 40.7681 30.7703 40.607C30.8383 40.5569 30.9994 40.607 31.1927 40.7681C31.2142 40.7681 33.1328 42.2357 35.1804 43.8251C39.1179 46.8641 40.1202 47.7411 40.1202 47.7411C40.1202 47.7411 41.416 46.0265 51.3888 36.9594C58.1113 30.849 61.8877 27.8636 62.3459 27.5594C62.4521 27.485 62.5751 27.4382 62.7039 27.4233C62.7454 27.4251 62.7859 27.4367 62.822 27.4573C62.8581 27.4778 62.8888 27.5067 62.9115 27.5415V27.5415C62.9115 27.5415 62.8184 27.4341 62.9115 27.5415C63.0046 27.6489 64.7908 29.9577 64.9232 30.2011C65.045 30.4159 65.0235 30.4338 64.9232 30.5304C61.1407 34.2686 57.5562 38.202 54.1845 42.3145C46.6673 51.5212 43.2631 56.436 42.898 56.9192C42.898 56.9192 43.2846 56.3859 42.898 56.9192C42.5114 57.4526 42.2357 57.6888 42.0102 57.6888Z" fill="#2C3B4A"/>
</svg>
