<svg width="100" height="100" viewBox="0 0 100 100" fill="none" xmlns="http://www.w3.org/2000/svg">
<path d="M82.0257 98H18.4359C8.79487 98 1 90.2051 1 80.5641V19.4359C1 9.79487 8.79487 2 18.4359 2H82.0257C91.6667 2 99.4616 9.79487 99.4616 19.4359V80.5641C99.4616 90.2051 91.6667 98 82.0257 98Z" fill="#FF26BE"/>
<path d="M80.4668 93.8974H19.995C11.7899 93.8974 5.10272 87.2102 5.10272 79.005V20.9948C5.10272 12.7897 11.7899 6.10248 19.995 6.10248H80.4258C88.672 6.10248 95.3181 12.7897 95.3181 20.9948V78.964C95.3591 87.2102 88.672 93.8974 80.4668 93.8974Z" fill="#2E001F"/>
<path d="M39.9334 46.9232L51.4205 68.995C51.6257 69.3232 51.5026 69.6514 51.1744 69.6514H44.0359C43.5847 69.6514 43.3795 69.5283 43.1744 69.118C40.5488 63.7027 37.8821 58.2873 35.1334 52.4616H35.0513C32.5898 57.9591 29.8821 63.7437 27.2564 69.1591C27.0513 69.4873 26.8462 69.6104 26.518 69.6104H19.7488C19.3385 69.6104 19.2975 69.2821 19.5026 69.036L30.7436 47.6206L19.8718 25.9591C19.6257 25.6309 19.8718 25.3847 20.118 25.3847H27.1744C27.5847 25.3847 27.7488 25.4668 27.9129 25.836C30.4975 31.2514 33.1231 36.8309 35.5847 42.2873H35.6667C38.0462 36.8719 40.6718 31.2514 43.2154 25.877C43.4205 25.5488 43.5436 25.3437 43.9539 25.3437H50.559C50.8872 25.3437 51.0103 25.5898 50.8052 25.918L39.9334 46.9232ZM53.4308 53.6104C53.4308 44.0514 59.7898 36.5847 69.8821 36.5847C70.7436 36.5847 71.1949 36.5847 72.0154 36.6668V25.795C72.0154 25.5488 72.2206 25.3847 72.4257 25.3847H78.9077C79.2359 25.3847 79.318 25.5078 79.318 25.7129V63.3745C79.318 64.4822 79.318 65.877 79.5231 67.395C79.5231 67.6411 79.4411 67.7232 79.1949 67.8462C75.7488 69.4873 72.1385 70.2257 68.6923 70.2257C59.7898 70.2668 53.4308 64.7693 53.4308 53.6104ZM72.0154 43.1078C71.4411 42.8616 70.6206 42.6975 69.6359 42.6975C64.4667 42.6975 60.8564 46.677 60.8564 53.2821C60.8564 60.8309 64.5488 63.8668 69.1847 63.8668C70.1693 63.8668 71.2359 63.7437 72.0154 63.4155V43.1078Z" fill="#FFD9F2"/>
</svg>
