<svg width="100" height="100" viewBox="0 0 100 100" fill="none" xmlns="http://www.w3.org/2000/svg">
<path fill-rule="evenodd" clip-rule="evenodd" d="M86.75 1H13.25C6.5125 1 1 6.5125 1 13.25V86.75C1 93.4875 6.5125 99 13.25 99H86.75C93.4875 99 99 93.4875 99 86.75V13.25C99 6.5125 93.4875 1 86.75 1Z" fill="#E44332"/>
<path fill-rule="evenodd" clip-rule="evenodd" d="M21.9357 46.9212C23.6668 45.9235 60.7434 24.5879 61.5943 24.0965C62.4434 23.6064 62.4859 22.1025 61.5361 21.5604C60.5851 21.0183 58.7798 19.9927 58.108 19.5997C57.4243 19.2008 56.1944 18.979 55.0537 19.636C54.5802 19.9092 22.8934 38.1288 21.8343 38.7308C20.5666 39.4514 18.9978 39.4607 17.7344 38.7296C16.7368 38.1521 1 29.0077 1 29.0077V37.2722C5.07351 39.6443 15.2015 45.543 17.656 46.9287C19.121 47.7558 20.5232 47.7354 21.9357 46.9212Z" fill="white"/>
<path fill-rule="evenodd" clip-rule="evenodd" d="M21.9357 63.4335C23.6668 62.4358 60.7434 41.1003 61.5943 40.6088C62.4434 40.1188 62.4859 38.6149 61.5361 38.0728C60.5851 37.5306 58.7798 36.5051 58.108 36.112C57.4243 35.7131 56.1944 35.4914 55.0537 36.1484C54.5802 36.4216 22.8934 54.6412 21.8343 55.2431C20.5666 55.9637 18.9978 55.9731 17.7344 55.242C16.7368 54.6644 1 45.52 1 45.52V53.7845C5.07351 56.1566 15.2015 62.0553 17.656 63.441C19.121 64.2681 20.5232 64.2477 21.9357 63.4335Z" fill="white"/>
<path fill-rule="evenodd" clip-rule="evenodd" d="M21.9357 79.946C23.6668 78.9483 60.7434 57.6128 61.5943 57.1213C62.4434 56.6312 62.4859 55.1274 61.5361 54.5852C60.5851 54.0431 58.7798 53.0175 58.108 52.6245C57.4243 52.2256 56.1944 52.0037 55.0537 52.6607C54.5802 52.934 22.8934 71.1536 21.8343 71.7556C20.5666 72.4761 18.9978 72.4855 17.7344 71.7544C16.7368 71.1769 1 62.0325 1 62.0325V70.297C5.07351 72.6691 15.2015 78.5677 17.656 79.9534C19.121 80.7806 20.5232 80.7601 21.9357 79.946Z" fill="white"/>
</svg>
