<svg width="100" height="100" viewBox="0 0 100 100" fill="none" xmlns="http://www.w3.org/2000/svg">
<path d="M86.75 1H13.25C6.48451 1 1 6.48451 1 13.25V86.75C1 93.5155 6.48451 99 13.25 99H86.75C93.5155 99 99 93.5155 99 86.75V13.25C99 6.48451 93.5155 1 86.75 1Z" fill="#0079BF"/>
<path d="M80.38 13.74H62.25C59.0026 13.74 56.37 16.3726 56.37 19.62V50.735C56.37 53.9824 59.0026 56.615 62.25 56.615H80.38C83.6274 56.615 86.26 53.9824 86.26 50.735V19.62C86.26 16.3726 83.6274 13.74 80.38 13.74Z" fill="white"/>
<path d="M37.75 13.74H19.62C16.3726 13.74 13.74 16.3726 13.74 19.62V75.235C13.74 78.4824 16.3726 81.115 19.62 81.115H37.75C40.9975 81.115 43.63 78.4824 43.63 75.235V19.62C43.63 16.3726 40.9975 13.74 37.75 13.74Z" fill="white"/>
</svg>
