<svg width="100" height="100" viewBox="0 0 100 100" fill="none" xmlns="http://www.w3.org/2000/svg">
<rect width="100" height="100" fill="#252525"/>
<mask id="mask0" mask-type="alpha" maskUnits="userSpaceOnUse" x="19" y="20" width="61" height="61">
<path fill-rule="evenodd" clip-rule="evenodd" d="M62.2561 80.4262C63.2169 80.8005 64.3125 80.7765 65.2823 80.3099L77.8412 74.2668C79.1608 73.6318 80 72.296 80 70.8308V29.8548C80 28.3896 79.1608 27.054 77.8412 26.419L65.2823 20.3757C64.0097 19.7633 62.5202 19.9133 61.4033 20.7253C61.2437 20.8413 61.0917 20.9708 60.9492 21.1136L36.9066 43.048L26.4342 35.0986C25.4593 34.3586 24.0957 34.4192 23.1903 35.2428L19.8314 38.2982C18.7239 39.3056 18.7227 41.048 19.8287 42.057L28.9107 50.3427L19.8287 58.6284C18.7227 59.6376 18.7239 61.3799 19.8314 62.3873L23.1903 65.4426C24.0957 66.2663 25.4593 66.3268 26.4342 65.587L36.9066 57.6374L60.9492 79.5719C61.3295 79.9525 61.776 80.2391 62.2561 80.4262ZM64.7593 36.4951L46.5165 50.3427L64.7593 64.1904V36.4951Z" fill="white"/>
</mask>
<g mask="url(#mask0)">
<path d="M77.8412 26.4283L65.2725 20.3767C63.8178 19.6762 62.0791 19.9717 60.9373 21.1134L19.792 58.6283C18.6853 59.6375 18.6865 61.3798 19.7947 62.3872L23.1556 65.4425C24.0616 66.2662 25.426 66.3267 26.4015 65.5869L75.9499 27.9982C77.6122 26.7372 79.9998 27.9228 79.9998 30.0093V29.8633C79.9998 28.3987 79.1608 27.0636 77.8412 26.4283Z" fill="#0065A9"/>
<g filter="url(#filter0_d)">
<path d="M77.8412 74.2573L65.2725 80.309C63.8178 81.0093 62.0791 80.7138 60.9373 79.5722L19.792 42.0573C18.6853 41.0482 18.6865 39.3058 19.7947 38.2984L23.1556 35.243C24.0616 34.4194 25.426 34.3588 26.4015 35.0988L75.9499 72.6873C77.6122 73.9483 79.9998 72.7628 79.9998 70.6762V70.8223C79.9998 72.2868 79.1608 73.6218 77.8412 74.2573Z" fill="#007ACC"/>
</g>
<g filter="url(#filter1_d)">
<path d="M65.2732 80.3097C63.818 81.0096 62.0793 80.7138 60.9374 79.572C62.3443 80.9788 64.7499 79.9823 64.7499 77.9927V22.6928C64.7499 20.7031 62.3443 19.7067 60.9374 21.1136C62.0793 19.9717 63.818 19.6758 65.2732 20.3757L77.8397 26.419C79.1602 27.054 79.9999 28.3896 79.9999 29.8548V70.8309C79.9999 72.2961 79.1602 73.6317 77.8397 74.2667L65.2732 80.3097Z" fill="#1F9CF0"/>
</g>
<g style="mix-blend-mode:overlay" opacity="0.25">
<path style="mix-blend-mode:overlay" opacity="0.25" fill-rule="evenodd" clip-rule="evenodd" d="M62.219 80.4264C63.1797 80.8005 64.2754 80.7766 65.2449 80.3101L77.8038 74.2668C79.1236 73.6318 79.9628 72.2962 79.9628 70.831V29.855C79.9628 28.3897 79.1236 27.0542 77.804 26.4191L65.2449 20.3759C63.9725 19.7635 62.483 19.9135 61.3659 20.7255C61.2065 20.8415 61.0545 20.971 60.9118 21.1137L36.8694 43.0482L26.3969 35.0987C25.4221 34.3587 24.0585 34.4194 23.1531 35.243L19.7942 38.2983C18.6867 39.3058 18.6854 41.0481 19.7915 42.0572L28.8735 50.3429L19.7915 58.6286C18.6854 59.6378 18.6867 61.3801 19.7942 62.3875L23.1531 65.4428C24.0585 66.2665 25.4221 66.327 26.3969 65.5872L36.8694 57.6376L60.9118 79.5721C61.2921 79.9527 61.7389 80.2393 62.219 80.4264ZM64.7221 36.4952L46.4793 50.3429L64.7221 64.1906V36.4952Z" fill="url(#paint0_linear)"/>
</g>
</g>
<defs>
<filter id="filter0_d" x="-2.37063" y="13.2486" width="103.704" height="88.7699" filterUnits="userSpaceOnUse" color-interpolation-filters="sRGB">
<feFlood flood-opacity="0" result="BackgroundImageFix"/>
<feColorMatrix in="SourceAlpha" type="matrix" values="0 0 0 0 0 0 0 0 0 0 0 0 0 0 0 0 0 0 127 0"/>
<feOffset/>
<feGaussianBlur stdDeviation="10.6667"/>
<feColorMatrix type="matrix" values="0 0 0 0 0 0 0 0 0 0 0 0 0 0 0 0 0 0 0.25 0"/>
<feBlend mode="overlay" in2="BackgroundImageFix" result="effect1_dropShadow"/>
<feBlend mode="normal" in="SourceGraphic" in2="effect1_dropShadow" result="shape"/>
</filter>
<filter id="filter1_d" x="39.604" y="-1.3334" width="61.7293" height="103.352" filterUnits="userSpaceOnUse" color-interpolation-filters="sRGB">
<feFlood flood-opacity="0" result="BackgroundImageFix"/>
<feColorMatrix in="SourceAlpha" type="matrix" values="0 0 0 0 0 0 0 0 0 0 0 0 0 0 0 0 0 0 127 0"/>
<feOffset/>
<feGaussianBlur stdDeviation="10.6667"/>
<feColorMatrix type="matrix" values="0 0 0 0 0 0 0 0 0 0 0 0 0 0 0 0 0 0 0.25 0"/>
<feBlend mode="overlay" in2="BackgroundImageFix" result="effect1_dropShadow"/>
<feBlend mode="normal" in="SourceGraphic" in2="effect1_dropShadow" result="shape"/>
</filter>
<linearGradient id="paint0_linear" x1="49.4628" y1="20.0002" x2="49.4628" y2="80.6856" gradientUnits="userSpaceOnUse">
<stop stop-color="white"/>
<stop offset="1" stop-color="white" stop-opacity="0"/>
</linearGradient>
</defs>
</svg>
