<svg width="100" height="100" viewBox="0 0 100 100" fill="none" xmlns="http://www.w3.org/2000/svg">
<path d="M1 50C1 22.854 22.854 1 50 1C77.146 1 99 22.854 99 50C99 77.146 77.146 99 50 99C22.854 99 1 77.146 1 50Z" fill="#4353FF"/>
<path d="M64.3938 44.1813L59.9531 58.1769C59.9531 57.105 56.8906 33.8913 56.8906 33.8913C49.8469 33.8913 46.1106 38.8832 44.1506 44.1813L38.73 58.2075C38.73 57.1969 37.9644 44.3038 37.9644 44.3038C37.7029 41.5127 36.4269 38.9144 34.3781 37.0011C32.3293 35.0877 29.6499 33.9922 26.8475 33.9219L32.605 69.0794C39.955 69.0794 43.9362 64.0875 45.9881 58.7894L50.5819 46.8457C50.5819 47.3357 53.6444 69.0794 53.6444 69.0794C56.6499 69.0756 59.5761 68.1147 61.9989 66.3362C64.4216 64.5576 66.2151 62.0538 67.1194 59.1875L77.5319 33.8913C70.1819 33.8913 66.3231 38.8832 64.3631 44.1813H64.3938Z" fill="white"/>
</svg>
